<?xml version="1.0" encoding="utf-8"?>
<!-- Generator: Adobe Illustrator 13.0.3, SVG Export Plug-In  -->
<!DOCTYPE svg PUBLIC "-//W3C//DTD SVG 1.1//EN" "http://www.w3.org/Graphics/SVG/1.1/DTD/svg11.dtd" [
	<!ENTITY ns_flows "http://ns.adobe.com/Flows/1.0/">
]>
<svg version="1.1"
	 xmlns="http://www.w3.org/2000/svg" xmlns:xlink="http://www.w3.org/1999/xlink" xmlns:a="http://ns.adobe.com/AdobeSVGViewerExtensions/3.0/"
	 x="0px" y="0px" width="150px" height="30px" viewBox="-15.5 -4 150 30" enable-background="new -15.5 -4 150 30"
	 xml:space="preserve">
<defs>
</defs>
<path fill="#FFFFFF" d="M9.342,18.435c0.92-0.02,3.121-0.14,4.321-0.36c0.02,0.66,0.06,1.381,0.08,2.021
	c-1.2,0.16-3.301,0.24-4.221,0.24H4.781c-3.261,0-4.781-1.38-4.781-4.4V4.292l2.581,0.14c-0.02,0.2-0.18,0.36-0.58,0.42v6.201
	c2.821-0.899,6.822-2.46,9.302-3.82l1.38,1.9c-0.08,0.06-0.18,0.08-0.3,0.08c-0.1,0-0.2-0.021-0.3-0.061
	C9.922,10.234,5.421,11.954,2,12.934v3.021c0,1.841,0.88,2.48,2.821,2.48H9.342z M11.303,3.652c0.84,0.78,1.82,2.021,2.36,2.86
	l-1,0.74c-0.5-0.84-1.541-2.18-2.301-2.88L11.303,3.652z M13.923,2.572c0.86,0.78,1.86,1.98,2.38,2.82l-0.98,0.74
	c-0.52-0.82-1.58-2.101-2.32-2.82L13.923,2.572z"/>
<path fill="#FFFFFF" d="M17.681,5.052c2.041,0.62,4.441,1.681,5.901,2.661l-1.041,1.8c-1.44-1-3.821-2.061-5.801-2.761L17.681,5.052
	z M17.301,18.735c6.901-2.12,11.582-6.081,13.942-11.602c0.58,0.46,1.261,0.84,1.841,1.16c-2.48,5.461-7.322,9.742-14.023,12.042
	c-0.02,0.2-0.16,0.4-0.32,0.48L17.301,18.735z"/>
<path fill="#FFFFFF" d="M40.942,12.354c0,1.28-1.04,2.32-2.32,2.32s-2.32-1.04-2.32-2.32s1.04-2.32,2.32-2.32
	C39.942,10.034,40.942,11.114,40.942,12.354z"/>
<path fill="#FFFFFF" d="M54.563,13.014v5.642h4.341v-4.521l2.44,0.14c-0.02,0.16-0.16,0.28-0.479,0.341v7.021h-1.961v-1.141H48.401
	v1.221h-1.9v-7.582l2.38,0.12c-0.02,0.18-0.159,0.3-0.479,0.34v4.062h4.221v-5.642H44.4v-1.86h8.222V7.373h-3.701
	c-0.64,1.381-1.4,2.641-2.24,3.581c-0.4-0.32-1.16-0.84-1.641-1.101c1.48-1.56,2.681-4.301,3.321-7.021l2.38,0.62
	c-0.04,0.141-0.22,0.24-0.479,0.221c-0.16,0.62-0.36,1.24-0.58,1.86h11.442v1.84h-6.562v3.781h8.302v1.86H54.563z"/>
<g>
	<g>
		<path fill="#FFFFFF" d="M83.218,2.774c0,0,0.686-0.78,1.402-0.78c0.718,0,1.373,0.717,1.373,0.717l1.779,3.058L86.71,6.393
			l2.917,0.749l0.702-2.777l-0.903,0.499L87.18,1.308c0,0-0.75-0.718-1.187-0.968c-0.436-0.25-1.386-0.494-2.466-0.219
			c-0.765,0.195-1.746,1.373-1.746,1.373l-2.901,4.93l1.652,0.967L83.218,2.774z M93.731,12.414l-2.568-4.481l-1.582,0.926
			c0,0,2.186,3.682,2.528,4.306c0.344,0.625,0.281,1.341,0.312,1.311c0.032-0.03,0.063,0.529-0.53,1.061
			c-0.593,0.53-1.311,0.5-1.311,0.5h-3.462l0.008-1.195l-2.037,2.194l2.029,1.965v-1.155c0,0,2.995,0.096,4.023-0.03
			c1.029-0.124,1.997-0.749,2.464-1.185c0.47-0.439,0.719-1.375,0.719-2.154C94.324,13.694,93.731,12.414,93.731,12.414z
			 M83.715,16.095c0,0-4.336,0-5.178-0.091c-0.845-0.096-1.53-0.645-1.624-1.187c-0.115-0.679,0.124-1.529,0.124-1.529l1.593-2.714
			l0.967,0.577l-0.725-2.785l-2.8,0.741l0.935,0.624l-1.654,2.838c-0.335,0.875-0.529,1.81-0.404,2.498
			c0.124,0.686,0.437,1.466,1.342,2.09c0.905,0.622,2.027,0.716,2.027,0.716l5.43-0.061L83.715,16.095z M83.84,7.642
			C83.561,7.891,82.66,8.05,82.66,8.05l-0.004,0.776l1.402,0.031l0.032,5.181h1.186V6.705h-0.968
			C84.308,6.705,84.122,7.392,83.84,7.642z M81.593,20.964l-2.183,0.03l0.032,3.994l0.779-0.031l0.03-1.499h1.341
			c0,0,0.937-0.405,0.937-1.31S81.593,20.964,81.593,20.964z M81.371,22.853l-1.118,0.016l-0.008-1.243l1.101-0.007
			c0,0,0.468,0.155,0.468,0.591C81.813,22.749,81.371,22.853,81.371,22.853z M84.122,23.179h2.06v-0.655h-2.068l0.009-0.936h2.246
			v-0.624h-3.057l-0.032,3.961h3.182v-0.717h-2.339V23.179z M86.773,21.619h1.279v3.307h0.843v-3.307h1.28v-0.686h-3.402V21.619z"/>
	</g>
</g>
<polygon fill="#FFFFFF" points="101.501,10.974 99.226,10.974 99.24,10.665 101.557,10.665 "/>
<polygon fill="#FFFFFF" points="101.626,10.229 99.311,10.229 99.479,9.527 101.853,9.527 "/>
<path fill="#FFFFFF" d="M101.963,9.205h-2.401c0,0,0.802-2.64,2.767-4.353c1.964-1.712,4.295-2.541,6.334-2.541
	c2.033,0,3.319,0.378,4.604,1.067c0.986,0.529,1.951,1.306,2.147,1.502c0.197,0.196,0.885,0.786,1.602,1.923l1.039,0.014
	l-1.698,2.809l-3.287-2.78h1.096c0,0-1.389-1.475-3.314-1.995c-1.922-0.519-3.639-0.139-4.321,0.084
	c-0.985,0.323-2.17,1.134-2.712,1.601C102.792,7.421,101.963,9.205,101.963,9.205z"/>
<path fill="#FFFFFF" d="M106.161,11.311h-2.219V10.16h3.176c0,0-0.07,1.744-0.07,2.008c0,0.253-0.085,1.066-0.424,1.655
	c-0.026,0.051,0.761,0.872,0.761,0.872v1.319l-1.308-1.376c0,0-0.52,0.533-0.925,0.8c-0.408,0.267-1.308,0.576-1.308,0.576v-1.235
	c0,0,0.887-0.352,1.336-0.674c0.449-0.324,0.716-0.97,0.854-1.335C106.175,12.406,106.161,11.311,106.161,11.311z"/>
<path fill="#FFFFFF" d="M109.392,13.234h-1.782v-1.122h1.81v-0.759h-1.616v-1.222h3.482v1.207h-1.039v0.744h1.251v1.151h-1.265
	l-0.168,1.32c0,0-0.322,0.773-0.912,0.996c-0.59,0.226-1.291,0.436-1.291,0.436v-1.291c0,0,0.877-0.106,1.206-0.436
	C109.398,13.929,109.392,13.234,109.392,13.234z"/>
<polygon fill="#FFFFFF" points="111.862,13.191 111.862,12.112 115.022,12.112 115.022,13.205 "/>
<path fill="#FFFFFF" d="M115.527,14.063v-3.932h0.871v4.238c0,0-0.225,0.746-0.506,1.027c-0.281,0.28-1.083,0.617-1.083,0.617
	v-1.305c0,0,0.316-0.121,0.48-0.282C115.45,14.267,115.527,14.063,115.527,14.063z"/>
<path fill="#FFFFFF" d="M116.846,15.986v-5.841h0.883v4.211c0,0,0.198-0.013,0.296-0.11c0.1-0.098,0.184-0.352,0.184-0.352V12.77
	h0.8v1.56c0,0-0.406,0.885-0.757,1.108C117.898,15.663,116.846,15.986,116.846,15.986z"/>
<polygon fill="#FFFFFF" points="117.352,16.548 114.671,16.548 114.972,16.246 117.492,16.246 "/>
<polygon fill="#FFFFFF" points="116.622,17.685 113.616,17.685 114.355,16.946 117.113,16.946 "/>
<path fill="#FFFFFF" d="M113.153,18.008h3.245c0,0-1.04,1.249-1.643,1.655c-0.604,0.409-2.079,1.319-3.131,1.589
	c-1.054,0.267-1.995,0.561-4.143,0.267c-2.148-0.295-3.411-1.096-4.029-1.489c-0.617-0.395-2.19-1.951-2.558-2.514
	c-0.364-0.56-0.939-1.782-0.939-1.782l-0.463-1.278h-1.234l2.133-2.851l2.935,2.809h-1.459c0,0,0.267,0.87,0.91,1.783
	c0.647,0.913,1.714,2.021,3.216,2.611c1.504,0.589,2.557,0.604,3.243,0.604c0.689,0,1.98-0.381,2.374-0.505
	C112.001,18.781,113.153,18.008,113.153,18.008z"/>
<polygon fill="#FFFFFF" points="125.502,11.903 125.74,11.469 128.508,11.497 128.268,11.891 "/>
<polygon fill="#FFFFFF" points="125.965,11.118 126.387,10.359 129.152,10.359 128.673,11.131 "/>
<path fill="#FFFFFF" d="M129.363,9.98h-2.736l4.001-6.922c0,0,0.517-1.053,1.614-1.053c0.855,0,1.586,1.095,1.586,1.095l2.415,4.184
	c0,0,1.361,0.042,1.318,0c-0.04-0.042-1.08,2.766-1.08,2.766l-4.662-2.766h1.644l-0.913-1.615c0,0-0.168-0.182-0.352-0.182
	c-0.181,0-0.371,0.189-0.371,0.189L129.363,9.98z"/>
<path fill="#FFFFFF" d="M133.057,11.482h-3.456v-1.137h4.409v1.179c0,0,0.028,0.872-0.449,1.349c-0.478,0.476-1.557,0.49-1.557,0.49
	l-0.072,0.73c0,0-0.085,0.688-0.267,0.997c-0.183,0.309-0.422,0.646-0.688,0.786c-0.265,0.14-1.39,0.223-1.39,0.223v-1.235
	c0,0,0.646,0,1.066-0.193c0.423-0.198,0.491-0.689,0.491-0.689v-1.713h1.321c0,0,0.303-0.079,0.478-0.254
	C133.071,11.891,133.057,11.482,133.057,11.482z"/>
<path fill="#FFFFFF" d="M134.488,14.194v-3.862h0.927v4.142c0,0-0.211,0.787-0.505,1.081c-0.296,0.295-1.235,0.504-1.235,0.504
	v-1.207c0,0,0.35,0.014,0.563-0.195C134.445,14.445,134.488,14.194,134.488,14.194z"/>
<path fill="#FFFFFF" d="M135.892,16.058v-5.699h0.911v4.313c0,0,0.24,0.069,0.48-0.171c0.237-0.238,0.237-0.589,0.237-0.589V13.25
	h0.8v1.208c0,0-0.154,0.802-0.8,1.208C136.875,16.074,135.892,16.058,135.892,16.058z"/>
<rect x="138.712" y="10.359" fill="#FFFFFF" width="3.876" height="1.096"/>
<rect x="138.7" y="12.044" fill="#FFFFFF" width="3.903" height="1.122"/>
<path fill="#FFFFFF" d="M138.686,14.922v-1.18c0,0,0.646-0.029,1.22,0.21c0.577,0.241,0.955,0.592,1.434,0.774
	c0.478,0.182,1.249,0.265,1.249,0.265v1.138c0,0-0.548,0.028-0.969-0.112c-0.42-0.14-1.004-0.455-1.109-0.562
	c-0.104-0.105-0.744-0.422-0.855-0.422C139.542,15.034,138.686,14.922,138.686,14.922z"/>
<polygon fill="#FFFFFF" points="138.573,16.115 141.297,16.115 141.59,16.593 138.854,16.593 "/>
<polygon fill="#FFFFFF" points="139.066,16.958 141.831,16.958 142.223,17.689 139.515,17.689 "/>
<path fill="#FFFFFF" d="M139.556,18.081h2.879c0,0,0.251,0.521,0.251,0.913c0,0.394-0.182,0.815-0.547,1.18
	c-0.365,0.365-1.432,0.492-1.685,0.492c-0.251,0-16.608,0.026-16.608,0.026s-0.856-0.054-1.207-0.252
	c-0.352-0.197-0.844-0.73-0.844-1.011c0-0.282-0.1-0.815,0.142-1.305c0.237-0.493,1.57-2.725,1.57-2.725h-1.542l4.632-2.809
	l1.066,2.781h-1.418l-1.306,2.246c0,0-0.14,0.379-0.069,0.52c0.069,0.14,0.252,0.251,0.532,0.251c0.282,0,13.703,0.016,13.703,0.016
	s0.234-0.008,0.338-0.112C139.548,18.186,139.556,18.081,139.556,18.081z"/>
</svg>
