<?xml version="1.0" encoding="utf-8"?>
<!-- Generator: Adobe Illustrator 13.0.3, SVG Export Plug-In  -->
<!DOCTYPE svg PUBLIC "-//W3C//DTD SVG 1.1//EN" "http://www.w3.org/Graphics/SVG/1.1/DTD/svg11.dtd" [
	<!ENTITY ns_flows "http://ns.adobe.com/Flows/1.0/">
]>
<svg version="1.1"
	 xmlns="http://www.w3.org/2000/svg" xmlns:xlink="http://www.w3.org/1999/xlink" xmlns:a="http://ns.adobe.com/AdobeSVGViewerExtensions/3.0/"
	 x="0px" y="0px" width="120px" height="23px" viewBox="-2.534 -4.496 120 23" enable-background="new -2.534 -4.496 120 23"
	 xml:space="preserve">
<defs>
</defs>
<text transform="matrix(1 0 0 1 0 12.4702)" fill="#FFFFFF" font-family="'KozGoPro-Medium-90ms-RKSJ-H'" font-size="13">分別〔瓶・缶〕</text>
<path fill="#FFFFFF" d="M75.313,4.118l1.86-3.16c0,0,0.629-0.755,1.119-0.88c0.692-0.176,1.301-0.02,1.58,0.14
	c0.28,0.16,0.761,0.62,0.761,0.62l1.439,2.28l0.58-0.32l-0.45,1.78l-1.87-0.48l0.681-0.4l-1.141-1.96c0,0-0.42-0.46-0.88-0.46
	s-0.899,0.5-0.899,0.5l-1.721,2.96L75.313,4.118z"/>
<path fill="#FFFFFF" d="M82.172,5.678l1.014-0.593l1.646,2.873c0,0,0.38,0.82,0.38,1.32s-0.159,1.1-0.46,1.381
	c-0.3,0.279-0.92,0.68-1.58,0.76c-0.659,0.08-2.579,0.02-2.579,0.02v0.74l-1.301-1.26l1.306-1.406l-0.005,0.766h2.22
	c0,0,0.46,0.02,0.84-0.32s0.36-0.699,0.34-0.68c-0.02,0.02,0.021-0.439-0.2-0.84C83.572,8.038,82.172,5.678,82.172,5.678z"/>
<path fill="#FFFFFF" d="M78.412,10.317l0.021,1.102l-3.48,0.039c0,0-0.72-0.061-1.3-0.459c-0.58-0.4-0.78-0.9-0.86-1.34
	c-0.08-0.441,0.045-1.041,0.26-1.602l1.061-1.819l-0.6-0.4l1.795-0.475l0.465,1.785l-0.62-0.37l-1.021,1.74
	c0,0-0.154,0.545-0.08,0.98c0.061,0.348,0.5,0.699,1.041,0.76C75.632,10.317,78.412,10.317,78.412,10.317z"/>
<path fill="#FFFFFF" d="M79.412,4.298v4.701h-0.76l-0.021-3.321l-0.899-0.02l0.003-0.498c0,0,0.577-0.103,0.757-0.262
	c0.181-0.16,0.3-0.6,0.3-0.6H79.412z"/>
<path fill="#FFFFFF" d="M76.173,15.999l-0.5,0.02l-0.021-2.561l1.399-0.02c0,0,0.601,0.18,0.601,0.76s-0.601,0.84-0.601,0.84h-0.859
	L76.173,15.999z"/>
<path fill="#FFFFFF" d="M76.192,14.659l-0.005-0.797l0.705-0.004c0,0,0.3,0.1,0.3,0.379c0,0.346-0.283,0.412-0.283,0.412
	L76.192,14.659z"/>
<polygon fill="#FFFFFF" points="78.152,13.438 80.112,13.438 80.112,13.838 78.673,13.838 78.667,14.438 79.992,14.438 
	79.992,14.858 78.673,14.858 78.673,15.518 80.172,15.518 80.172,15.977 78.132,15.977 "/>
<polygon fill="#FFFFFF" points="81.192,15.977 81.192,13.858 80.372,13.858 80.372,13.418 82.553,13.418 82.553,13.858 
	81.732,13.858 81.732,15.977 "/>
<polygon fill="#FFFFFF" points="90.197,7.034 88.739,7.034 88.748,6.836 90.233,6.836 "/>
<polygon fill="#FFFFFF" points="90.278,6.557 88.794,6.557 88.901,6.107 90.423,6.107 "/>
<path fill="#FFFFFF" d="M90.494,5.9h-1.539c0,0,0.514-1.692,1.773-2.79c1.259-1.098,2.753-1.629,4.06-1.629
	c1.304,0,2.128,0.243,2.951,0.684c0.632,0.339,1.251,0.837,1.377,0.963c0.126,0.126,0.567,0.504,1.026,1.233l0.666,0.009l-1.089,1.8
	l-2.106-1.782h0.702c0,0-0.891-0.945-2.125-1.278c-1.232-0.333-2.332-0.089-2.771,0.054c-0.631,0.207-1.391,0.727-1.738,1.026
	C91.025,4.757,90.494,5.9,90.494,5.9z"/>
<path fill="#FFFFFF" d="M93.185,7.25h-1.422V6.512h2.035c0,0-0.045,1.118-0.045,1.287c0,0.162-0.055,0.684-0.271,1.062
	c-0.018,0.032,0.487,0.559,0.487,0.559v0.846l-0.838-0.882c0,0-0.333,0.342-0.593,0.513c-0.262,0.171-0.838,0.369-0.838,0.369V9.473
	c0,0,0.567-0.226,0.855-0.432c0.288-0.208,0.459-0.622,0.548-0.855C93.194,7.953,93.185,7.25,93.185,7.25z"/>
<path fill="#FFFFFF" d="M95.256,8.483h-1.143v-0.72h1.16V7.277h-1.036V6.494h2.232v0.774h-0.666v0.477h0.802v0.738h-0.811
	L95.688,9.33c0,0-0.207,0.495-0.585,0.639s-0.828,0.279-0.828,0.279V9.419c0,0,0.563-0.068,0.773-0.279
	C95.26,8.929,95.256,8.483,95.256,8.483z"/>
<polygon fill="#FFFFFF" points="96.839,8.456 96.839,7.763 98.864,7.763 98.864,8.464 "/>
<path fill="#FFFFFF" d="M99.188,9.014v-2.52h0.559v2.717c0,0-0.145,0.478-0.324,0.658c-0.181,0.18-0.694,0.396-0.694,0.396V9.428
	c0,0,0.203-0.077,0.308-0.181C99.139,9.145,99.188,9.014,99.188,9.014z"/>
<path fill="#FFFFFF" d="M100.034,10.248V6.503h0.566v2.7c0,0,0.127-0.009,0.189-0.071c0.063-0.063,0.117-0.226,0.117-0.226v-0.72
	h0.513v0.999c0,0-0.261,0.567-0.485,0.711C100.709,10.04,100.034,10.248,100.034,10.248z"/>
<polygon fill="#FFFFFF" points="100.358,10.608 98.64,10.608 98.833,10.414 100.448,10.414 "/>
<polygon fill="#FFFFFF" points="99.89,11.336 97.964,11.336 98.438,10.863 100.205,10.863 "/>
<path fill="#FFFFFF" d="M97.667,11.543h2.08c0,0-0.667,0.801-1.054,1.062c-0.387,0.262-1.332,0.846-2.007,1.018
	c-0.675,0.171-1.278,0.36-2.655,0.171c-1.377-0.188-2.187-0.702-2.583-0.954c-0.396-0.253-1.403-1.251-1.639-1.611
	c-0.233-0.359-0.603-1.143-0.603-1.143L88.91,9.266h-0.791l1.367-1.827l1.881,1.8h-0.936c0,0,0.171,0.559,0.584,1.144
	c0.415,0.585,1.099,1.296,2.062,1.674c0.964,0.378,1.639,0.388,2.079,0.388c0.441,0,1.27-0.244,1.521-0.324
	C96.929,12.039,97.667,11.543,97.667,11.543z"/>
<polygon fill="#FFFFFF" points="105.355,7.63 105.508,7.352 107.282,7.369 107.129,7.622 "/>
<polygon fill="#FFFFFF" points="105.652,7.126 105.923,6.64 107.695,6.64 107.389,7.135 "/>
<path fill="#FFFFFF" d="M107.83,6.397h-1.754l2.564-4.438c0,0,0.331-0.675,1.035-0.675c0.549,0,1.017,0.702,1.017,0.702l1.548,2.682
	c0,0,0.873,0.027,0.846,0c-0.026-0.027-0.692,1.773-0.692,1.773l-2.988-1.773h1.053l-0.585-1.035c0,0-0.107-0.117-0.226-0.117
	c-0.115,0-0.237,0.121-0.237,0.121L107.83,6.397z"/>
<path fill="#FFFFFF" d="M110.198,7.36h-2.215V6.631h2.826v0.756c0,0,0.018,0.559-0.288,0.864s-0.998,0.314-0.998,0.314l-0.046,0.469
	c0,0-0.055,0.441-0.171,0.639c-0.117,0.198-0.271,0.414-0.441,0.504c-0.17,0.09-0.891,0.144-0.891,0.144V9.529
	c0,0,0.414,0,0.684-0.125c0.271-0.127,0.314-0.441,0.314-0.441V7.865h0.848c0,0,0.193-0.051,0.306-0.163
	C110.207,7.622,110.198,7.36,110.198,7.36z"/>
<path fill="#FFFFFF" d="M111.115,9.098V6.623h0.595v2.654c0,0-0.136,0.505-0.324,0.693c-0.189,0.189-0.792,0.323-0.792,0.323V9.52
	c0,0,0.225,0.009,0.36-0.126C111.088,9.259,111.115,9.098,111.115,9.098z"/>
<path fill="#FFFFFF" d="M112.016,10.293V6.64h0.584v2.764c0,0,0.154,0.045,0.308-0.108c0.152-0.153,0.152-0.378,0.152-0.378V8.494
	h0.513v0.774c0,0-0.099,0.514-0.513,0.774S112.016,10.293,112.016,10.293z"/>
<rect x="113.824" y="6.64" fill="#FFFFFF" width="2.484" height="0.703"/>
<rect x="113.815" y="7.72" fill="#FFFFFF" width="2.502" height="0.72"/>
<path fill="#FFFFFF" d="M113.807,9.565V8.809c0,0,0.414-0.019,0.782,0.135c0.369,0.154,0.612,0.379,0.919,0.496
	c0.306,0.116,0.801,0.17,0.801,0.17v0.729c0,0-0.352,0.018-0.621-0.072s-0.644-0.292-0.711-0.36c-0.067-0.067-0.478-0.27-0.549-0.27
	C114.355,9.637,113.807,9.565,113.807,9.565z"/>
<polygon fill="#FFFFFF" points="113.734,10.33 115.48,10.33 115.669,10.636 113.914,10.636 "/>
<polygon fill="#FFFFFF" points="114.05,10.871 115.822,10.871 116.074,11.338 114.338,11.338 "/>
<path fill="#FFFFFF" d="M114.364,11.59h1.846c0,0,0.161,0.333,0.161,0.585s-0.116,0.522-0.351,0.756
	c-0.234,0.234-0.918,0.315-1.08,0.315c-0.161,0-10.646,0.018-10.646,0.018s-0.549-0.035-0.773-0.162
	c-0.226-0.126-0.541-0.468-0.541-0.647c0-0.181-0.063-0.522,0.091-0.837c0.152-0.315,1.007-1.746,1.007-1.746h-0.989l2.97-1.801
	l0.684,1.783h-0.909l-0.837,1.439c0,0-0.09,0.243-0.044,0.333c0.044,0.09,0.161,0.161,0.341,0.161c0.181,0,8.784,0.01,8.784,0.01
	s0.149-0.005,0.217-0.071C114.359,11.658,114.364,11.59,114.364,11.59z"/>
</svg>
