<?xml version="1.0" encoding="utf-8"?>
<!-- Generator: Adobe Illustrator 13.0.3, SVG Export Plug-In  -->
<!DOCTYPE svg PUBLIC "-//W3C//DTD SVG 1.1//EN" "http://www.w3.org/Graphics/SVG/1.1/DTD/svg11.dtd" [
	<!ENTITY ns_flows "http://ns.adobe.com/Flows/1.0/">
]>
<svg version="1.1"
	 xmlns="http://www.w3.org/2000/svg" xmlns:xlink="http://www.w3.org/1999/xlink" xmlns:a="http://ns.adobe.com/AdobeSVGViewerExtensions/3.0/"
	 x="0px" y="0px" width="120px" height="23px" viewBox="-0.169 -2.894 120 23" enable-background="new -0.169 -2.894 120 23"
	 xml:space="preserve">
<defs>
</defs>
<path fill="#FFFFFF" d="M10.01,7.806C8.97,6.61,7.982,5.154,7.254,3.763l1.534-0.61c0.832,1.664,2.47,3.562,3.9,4.667
	c-0.416,0.325-1.027,0.962-1.326,1.403c-0.273-0.26-0.559-0.546-0.845-0.845c-0.143,4.069-0.299,5.616-0.754,6.162
	c-0.416,0.521-0.858,0.677-2.301,0.677c-0.286,0-0.585,0-0.884-0.014c-0.026-0.468-0.234-1.131-0.507-1.573
	c0.715,0.053,1.404,0.065,1.729,0.065c0.234,0,0.39-0.026,0.533-0.182c0.26-0.286,0.403-1.456,0.52-4.199H6.228
	c-0.364,2.365-1.053,4.706-4.55,6.045c-0.195-0.442-0.65-1.079-1.014-1.43c2.951-0.976,3.64-2.704,3.9-4.615H2.34V8.339
	C1.976,8.69,1.612,9.015,1.235,9.301C0.949,8.977,0.364,8.404,0,8.118c1.56-1.066,3.029-2.978,3.822-4.94l1.911,0.65
	c-0.065,0.143-0.234,0.169-0.39,0.143C4.719,5.349,3.848,6.688,2.847,7.793h6.435L9.646,7.78L10.01,7.806z"/>
<path fill="#FFFFFF" d="M18.252,9.366l0.312-0.013l0.806,0.064l-0.039,0.429c-0.117,3.186-0.26,4.421-0.611,4.862
	c-0.377,0.469-0.78,0.546-1.911,0.546c-0.208,0-0.429,0-0.65-0.013c-0.039-0.416-0.195-0.988-0.416-1.352
	c0.572,0.052,0.806,0.052,1.378,0.052c0.156,0,0.247-0.026,0.351-0.144c0.195-0.221,0.312-1.053,0.403-3.081h-1.482
	c-0.312,1.625-0.897,3.315-2.197,4.524c-0.221-0.364-0.676-0.845-1.053-1.104c1.677-1.47,1.95-3.952,2.08-5.968h-1.326V3.606h5.396
	V8.17h-2.561c-0.039,0.377-0.078,0.78-0.13,1.196H18.252z M15.314,4.998v1.794h2.47V4.998H15.314z M22.14,4.699
	c-0.013,0.13-0.117,0.208-0.338,0.247v7.033H20.28V4.595L22.14,4.699z M23.361,3.269l1.898,0.091
	c-0.013,0.131-0.091,0.222-0.351,0.247v9.764c0,1.6-0.507,1.911-3.328,1.911c-0.065-0.455-0.312-1.17-0.546-1.612
	c0.858,0.026,1.703,0.026,1.976,0.026c0.247,0,0.351-0.078,0.351-0.325V3.269z"/>
<path fill="#FFFFFF" d="M32.228,2.918v1.104l-2.262,1.054v8.112l2.262,1.04v1.118l-3.25-1.521V4.426L32.228,2.918z"/>
<path fill="#FFFFFF" d="M38.87,10.458H37.7v4.811h-1.378v-4.811h-1.118c-0.078,1.703-0.377,3.419-1.443,4.836
	c-0.247-0.299-0.779-0.754-1.131-0.948c0.858-1.157,1.131-2.522,1.209-3.888h-1.144V9.041h1.17V7h-0.949V5.622h1.118
	c-0.104-0.585-0.403-1.495-0.715-2.171l1.195-0.377c0.364,0.663,0.677,1.56,0.794,2.158l-1.145,0.39h3.056l-0.937-0.338
	c0.273-0.611,0.598-1.561,0.754-2.249l1.612,0.468c-0.039,0.104-0.156,0.156-0.338,0.156c-0.195,0.585-0.56,1.403-0.871,1.963h1.287
	V7H37.7v2.041h1.17V10.458z M35.23,9.041h1.092V7H35.23V9.041z M41.106,5.037c-0.026,0.468-0.052,0.949-0.065,1.43h2.782
	c-0.025,3.367-0.039,7.358,0.43,7.358c0.13,0,0.182-0.754,0.194-1.95c0.247,0.352,0.585,0.702,0.858,0.91
	c-0.104,1.729-0.338,2.496-1.196,2.496c-0.962,0-1.365-1.482-1.534-3.575l-1.053,0.325c-0.078-0.663-0.325-1.651-0.65-2.496h-0.013
	c-0.078,1.365-0.182,2.652-0.286,3.731l1.924-0.313l0.092,1.222c-1.404,0.286-2.86,0.586-3.81,0.768
	c-0.026,0.117-0.117,0.182-0.208,0.208l-0.442-1.521l0.976-0.143c0.26-2.275,0.507-5.655,0.598-8.45h-1.079V3.646h6.345v1.392
	H41.106z M40.898,9.002l0.767-0.221c0.442,0.936,0.78,2.119,0.897,2.912h0.013c-0.104-1.157-0.117-2.51-0.13-3.9h-1.481
	L40.898,9.002z"/>
<path fill="#FFFFFF" d="M50.245,9.132c0,0.91-0.754,1.664-1.664,1.664s-1.664-0.754-1.664-1.664s0.754-1.664,1.664-1.664
	C49.518,7.468,50.245,8.248,50.245,9.132z"/>
<path fill="#FFFFFF" d="M59.111,9.743v3.276h2.418v-2.652l1.963,0.117c-0.013,0.117-0.116,0.208-0.363,0.247v4.472h-1.6V14.54h-6.37
	v0.729h-1.573v-4.901l1.924,0.104c-0.013,0.131-0.116,0.208-0.351,0.247v2.302h2.354V9.743h-5.239V8.222h1.741
	c-0.324-0.272-0.909-0.676-1.313-0.884c0.962-0.975,1.729-2.743,2.106-4.459l1.937,0.494c-0.039,0.104-0.169,0.169-0.351,0.169
	c-0.091,0.364-0.208,0.728-0.338,1.092h7.163v1.521h-4.108v2.066h5.291v1.521H59.111z M55.419,6.155
	c-0.377,0.793-0.832,1.508-1.313,2.066h3.406V6.155H55.419z"/>
<path fill="#FFFFFF" d="M64.936,2.918l3.25,1.508v9.399l-3.25,1.521v-1.118l2.262-1.04V5.076l-2.262-1.054V2.918z"/>
<g>
	<g>
		<path fill="#FFFFFF" d="M77.163,2.134c0,0,0.527-0.6,1.079-0.6s1.056,0.552,1.056,0.552l1.369,2.352l-0.817,0.48l2.244,0.576
			l0.54-2.136l-0.695,0.384l-1.728-2.735c0,0-0.577-0.552-0.913-0.744c-0.335-0.192-1.065-0.38-1.896-0.168
			c-0.588,0.15-1.343,1.056-1.343,1.056l-2.232,3.792l1.271,0.744L77.163,2.134z M85.25,9.549l-1.976-3.447l-1.217,0.712
			c0,0,1.681,2.832,1.944,3.313c0.265,0.48,0.217,1.031,0.24,1.008c0.024-0.023,0.048,0.407-0.408,0.815s-1.008,0.385-1.008,0.385
			h-2.663l0.006-0.919l-1.567,1.688l1.562,1.512v-0.889c0,0,2.304,0.073,3.095-0.023c0.792-0.096,1.536-0.576,1.896-0.911
			c0.361-0.338,0.553-1.058,0.553-1.657C85.706,10.533,85.25,9.549,85.25,9.549z M77.546,12.381c0,0-3.336,0-3.983-0.07
			c-0.649-0.073-1.177-0.495-1.249-0.912c-0.089-0.522,0.096-1.177,0.096-1.177l1.225-2.088l0.744,0.444L73.82,6.436l-2.153,0.57
			l0.719,0.479l-1.272,2.184c-0.258,0.673-0.407,1.392-0.312,1.922c0.096,0.527,0.336,1.127,1.032,1.607
			c0.696,0.479,1.56,0.551,1.56,0.551l4.177-0.047L77.546,12.381z M77.642,5.878c-0.215,0.191-0.908,0.314-0.908,0.314L76.73,6.79
			l1.079,0.024l0.024,3.985h0.912V5.158h-0.744C78.002,5.158,77.858,5.686,77.642,5.878z M75.913,16.126l-1.679,0.023l0.024,3.072
			l0.6-0.023l0.023-1.153h1.031c0,0,0.721-0.312,0.721-1.008C76.634,16.342,75.913,16.126,75.913,16.126z M75.742,17.579
			l-0.86,0.012l-0.006-0.956l0.847-0.005c0,0,0.359,0.119,0.359,0.454C76.082,17.499,75.742,17.579,75.742,17.579z M77.858,17.83
			h1.584v-0.504h-1.591l0.007-0.72h1.728v-0.48h-2.352l-0.024,3.047h2.447v-0.551h-1.799V17.83z M79.897,16.63h0.984v2.543h0.648
			V16.63h0.984v-0.527h-2.617V16.63z"/>
	</g>
</g>
<polygon fill="#FFFFFF" points="89.688,8.441 87.938,8.441 87.949,8.203 89.731,8.203 "/>
<polygon fill="#FFFFFF" points="89.785,7.869 88.004,7.869 88.133,7.329 89.959,7.329 "/>
<path fill="#FFFFFF" d="M90.044,7.08h-1.847c0,0,0.616-2.03,2.128-3.348c1.511-1.317,3.304-1.955,4.872-1.955
	c1.564,0,2.554,0.291,3.541,0.821c0.759,0.407,1.501,1.005,1.652,1.156s0.681,0.604,1.231,1.479l0.8,0.011l-1.307,2.161
	l-2.528-2.139h0.843c0,0-1.068-1.134-2.55-1.534c-1.479-0.399-2.799-0.107-3.324,0.065c-0.758,0.249-1.669,0.872-2.086,1.231
	C90.682,5.708,90.044,7.08,90.044,7.08z"/>
<path fill="#FFFFFF" d="M93.272,8.7h-1.706V7.815h2.442c0,0-0.054,1.341-0.054,1.544c0,0.194-0.065,0.82-0.326,1.273
	c-0.021,0.039,0.585,0.671,0.585,0.671v1.015l-1.006-1.059c0,0-0.399,0.41-0.711,0.615c-0.314,0.205-1.006,0.443-1.006,0.443v-0.95
	c0,0,0.682-0.271,1.027-0.519c0.346-0.249,0.551-0.746,0.657-1.026C93.284,9.543,93.272,8.7,93.272,8.7z"/>
<path fill="#FFFFFF" d="M95.759,10.18h-1.371V9.316h1.392V8.733h-1.243v-0.94h2.679v0.929h-0.799v0.572h0.962v0.886h-0.973
	l-0.129,1.016c0,0-0.248,0.595-0.702,0.767c-0.453,0.173-0.993,0.335-0.993,0.335v-0.993c0,0,0.675-0.082,0.928-0.335
	C95.763,10.715,95.759,10.18,95.759,10.18z"/>
<polygon fill="#FFFFFF" points="97.658,10.146 97.658,9.316 100.089,9.316 100.089,10.157 "/>
<path fill="#FFFFFF" d="M100.478,10.817V7.793h0.67v3.261c0,0-0.173,0.573-0.389,0.79c-0.217,0.216-0.833,0.475-0.833,0.475v-1.004
	c0,0,0.243-0.093,0.369-0.217C100.418,10.975,100.478,10.817,100.478,10.817z"/>
<path fill="#FFFFFF" d="M101.492,12.297V7.804h0.68v3.239c0,0,0.152-0.01,0.228-0.085c0.076-0.075,0.141-0.271,0.141-0.271V9.823
	h0.615v1.199c0,0-0.313,0.681-0.582,0.853C102.302,12.048,101.492,12.297,101.492,12.297z"/>
<polygon fill="#FFFFFF" points="101.882,12.729 99.819,12.729 100.051,12.496 101.989,12.496 "/>
<polygon fill="#FFFFFF" points="101.319,13.604 99.008,13.604 99.576,13.035 101.697,13.035 "/>
<path fill="#FFFFFF" d="M98.651,13.853h2.496c0,0-0.8,0.961-1.264,1.273c-0.465,0.314-1.599,1.015-2.408,1.222
	c-0.811,0.205-1.534,0.432-3.187,0.205s-2.624-0.843-3.1-1.146c-0.475-0.304-1.685-1.501-1.967-1.934
	c-0.28-0.431-0.723-1.371-0.723-1.371l-0.356-0.983h-0.949l1.641-2.192l2.257,2.16H89.97c0,0,0.205,0.67,0.7,1.372
	c0.498,0.702,1.318,1.555,2.474,2.009c1.157,0.453,1.967,0.465,2.495,0.465c0.53,0,1.523-0.293,1.826-0.389
	C97.766,14.446,98.651,13.853,98.651,13.853z"/>
<polygon fill="#FFFFFF" points="106.612,9.156 106.795,8.822 108.925,8.843 108.74,9.146 "/>
<polygon fill="#FFFFFF" points="106.969,8.552 107.293,7.968 109.42,7.968 109.052,8.563 "/>
<path fill="#FFFFFF" d="M109.582,7.677h-2.104l3.077-5.325c0,0,0.397-0.81,1.242-0.81c0.658,0,1.22,0.842,1.22,0.842l1.857,3.219
	c0,0,1.048,0.032,1.015,0c-0.031-0.032-0.831,2.127-0.831,2.127l-3.586-2.127h1.264l-0.702-1.242c0,0-0.129-0.14-0.271-0.14
	c-0.139,0-0.285,0.146-0.285,0.146L109.582,7.677z"/>
<path fill="#FFFFFF" d="M112.424,8.833h-2.658V7.958h3.392v0.907c0,0,0.021,0.67-0.346,1.038c-0.367,0.366-1.197,0.377-1.197,0.377
	l-0.056,0.563c0,0-0.065,0.529-0.205,0.767c-0.141,0.237-0.324,0.497-0.529,0.604c-0.204,0.107-1.069,0.172-1.069,0.172v-0.95
	c0,0,0.497,0,0.82-0.149c0.325-0.152,0.378-0.53,0.378-0.53V9.438h1.017c0,0,0.232-0.061,0.367-0.195
	C112.435,9.146,112.424,8.833,112.424,8.833z"/>
<path fill="#FFFFFF" d="M113.524,10.918V7.947h0.713v3.186c0,0-0.162,0.605-0.389,0.832c-0.228,0.227-0.95,0.388-0.95,0.388v-0.929
	c0,0,0.27,0.011,0.433-0.15C113.491,11.111,113.524,10.918,113.524,10.918z"/>
<path fill="#FFFFFF" d="M114.604,12.353V7.968h0.701v3.317c0,0,0.185,0.054,0.369-0.131c0.183-0.184,0.183-0.453,0.183-0.453v-0.509
	h0.615v0.93c0,0-0.118,0.616-0.615,0.929C115.36,12.364,114.604,12.353,114.604,12.353z"/>
<rect x="116.774" y="7.968" fill="#FFFFFF" width="2.981" height="0.843"/>
<rect x="116.765" y="9.265" fill="#FFFFFF" width="3.002" height="0.863"/>
<path fill="#FFFFFF" d="M116.754,11.479v-0.907c0,0,0.497-0.022,0.938,0.161c0.443,0.186,0.734,0.455,1.103,0.596
	c0.367,0.14,0.961,0.204,0.961,0.204v0.875c0,0-0.422,0.021-0.745-0.087c-0.323-0.107-0.772-0.35-0.854-0.432
	c-0.08-0.081-0.572-0.324-0.658-0.324C117.412,11.564,116.754,11.479,116.754,11.479z"/>
<polygon fill="#FFFFFF" points="116.667,12.396 118.763,12.396 118.988,12.764 116.883,12.764 "/>
<polygon fill="#FFFFFF" points="117.046,13.045 119.173,13.045 119.475,13.606 117.392,13.606 "/>
<path fill="#FFFFFF" d="M117.423,13.908h2.215c0,0,0.193,0.4,0.193,0.702c0,0.303-0.14,0.627-0.421,0.907
	c-0.281,0.281-1.102,0.379-1.296,0.379c-0.193,0-12.775,0.021-12.775,0.021s-0.659-0.042-0.929-0.194
	c-0.271-0.151-0.649-0.562-0.649-0.777c0-0.217-0.076-0.627,0.109-1.004c0.183-0.379,1.208-2.096,1.208-2.096h-1.187l3.563-2.16
	l0.82,2.14h-1.091l-1.005,1.728c0,0-0.107,0.291-0.053,0.399c0.053,0.107,0.193,0.193,0.409,0.193
	c0.217,0,10.541,0.012,10.541,0.012s0.18-0.006,0.26-0.086C117.417,13.989,117.423,13.908,117.423,13.908z"/>
</svg>
