<?xml version="1.0" encoding="utf-8"?>
<!-- Generator: Adobe Illustrator 13.0.3, SVG Export Plug-In . SVG Version: 6.00 Build 14948)  -->
<!DOCTYPE svg PUBLIC "-//W3C//DTD SVG 1.1//EN" "http://www.w3.org/Graphics/SVG/1.1/DTD/svg11.dtd">
<svg version="1.1" id="レイヤー_1" xmlns="http://www.w3.org/2000/svg" xmlns:xlink="http://www.w3.org/1999/xlink" x="0px"
	 y="0px" width="143.686px" height="27.487px" viewBox="-10.186 -2.239 143.686 27.487"
	 enable-background="new -10.186 -2.239 143.686 27.487" xml:space="preserve">
<g>
	<path fill="#FFFFFF" d="M-0.844,17.445c0.92-0.02,3.121-0.14,4.321-0.36c0.02,0.66,0.06,1.381,0.08,2.021
		c-1.2,0.16-3.301,0.24-4.221,0.24h-4.741c-3.261,0-4.781-1.38-4.781-4.4V3.303l2.581,0.14c-0.02,0.2-0.18,0.36-0.58,0.42v6.201
		c2.821-0.899,6.822-2.46,9.302-3.82l1.38,1.9c-0.08,0.06-0.18,0.08-0.3,0.08c-0.1,0-0.2-0.021-0.3-0.061
		c-2.161,1.081-6.662,2.801-10.083,3.781v3.021c0,1.841,0.88,2.48,2.821,2.48H-0.844z M1.117,2.662c0.84,0.78,1.82,2.021,2.36,2.86
		l-1,0.74c-0.5-0.84-1.541-2.18-2.301-2.88L1.117,2.662z M3.737,1.582c0.86,0.78,1.86,1.98,2.38,2.82l-0.98,0.74
		c-0.52-0.82-1.58-2.101-2.32-2.82L3.737,1.582z"/>
	<path fill="#FFFFFF" d="M7.495,4.063c2.041,0.62,4.441,1.681,5.901,2.661l-1.041,1.8c-1.44-1-3.821-2.061-5.801-2.761L7.495,4.063z
		 M7.115,17.745c6.901-2.12,11.582-6.081,13.942-11.602c0.58,0.46,1.261,0.84,1.841,1.16c-2.48,5.461-7.322,9.742-14.023,12.042
		c-0.02,0.2-0.16,0.4-0.32,0.48L7.115,17.745z"/>
	<path fill="#FFFFFF" d="M30.756,11.364c0,1.28-1.04,2.32-2.32,2.32s-2.32-1.04-2.32-2.32s1.04-2.32,2.32-2.32
		C29.756,9.044,30.756,10.124,30.756,11.364z"/>
	<path fill="#FFFFFF" d="M44.376,12.024v5.642h4.341v-4.521l2.44,0.14c-0.02,0.16-0.16,0.28-0.479,0.341v7.021h-1.961v-1.141H38.215
		v1.221h-1.9v-7.582l2.38,0.12c-0.02,0.18-0.159,0.3-0.479,0.34v4.062h4.221v-5.642h-8.222v-1.86h8.222V6.383h-3.701
		c-0.64,1.381-1.4,2.641-2.24,3.581c-0.4-0.32-1.16-0.84-1.641-1.101c1.48-1.56,2.681-4.301,3.321-7.021l2.38,0.62
		c-0.04,0.141-0.22,0.24-0.479,0.221c-0.16,0.62-0.36,1.24-0.58,1.86h11.442v1.84h-6.562v3.781h8.302v1.86H44.376z"/>
</g>
<g>
	<g>
		<path fill="#FFFFFF" d="M68.086,0.813c0,0,0.754-0.858,1.542-0.858c0.79,0,1.511,0.789,1.511,0.789l1.957,3.364l-1.169,0.686
			l3.209,0.824l0.772-3.055l-0.994,0.549L72.443-0.8c0,0-0.825-0.79-1.305-1.064c-0.479-0.275-1.524-0.543-2.713-0.241
			c-0.841,0.214-1.921,1.51-1.921,1.51l-3.191,5.423l1.818,1.064L68.086,0.813z M79.649,11.416l-2.825-4.929l-1.74,1.018
			c0,0,2.404,4.05,2.781,4.736c0.378,0.688,0.31,1.476,0.343,1.442c0.035-0.033,0.068,0.582-0.583,1.166
			c-0.652,0.584-1.442,0.55-1.442,0.55h-3.808l0.009-1.314l-2.241,2.414l2.232,2.161v-1.271c0,0,3.295,0.104,4.426-0.033
			c1.132-0.137,2.196-0.824,2.71-1.304c0.517-0.483,0.791-1.513,0.791-2.369C80.302,12.824,79.649,11.416,79.649,11.416z
			 M68.632,15.466c0,0-4.77,0-5.695-0.101c-0.929-0.104-1.683-0.709-1.786-1.305c-0.127-0.747,0.137-1.683,0.137-1.683l1.752-2.985
			l1.063,0.635l-0.797-3.063l-3.08,0.815l1.028,0.686l-1.82,3.122c-0.368,0.962-0.582,1.991-0.444,2.748
			c0.136,0.755,0.479,1.613,1.476,2.299c0.996,0.685,2.23,0.788,2.23,0.788l5.973-0.066L68.632,15.466z M68.77,6.167
			c-0.307,0.274-1.299,0.45-1.299,0.45L67.467,7.47l1.543,0.034l0.035,5.699h1.304V5.136h-1.064
			C69.284,5.136,69.079,5.892,68.77,6.167z M66.298,20.821l-2.4,0.033l0.035,4.394l0.857-0.034l0.033-1.648h1.475
			c0,0,1.03-0.446,1.03-1.44C67.328,21.13,66.298,20.821,66.298,20.821z M66.053,22.899l-1.229,0.017l-0.009-1.367l1.211-0.008
			c0,0,0.515,0.171,0.515,0.65C66.54,22.784,66.053,22.899,66.053,22.899z M69.079,23.258h2.266v-0.721h-2.275l0.01-1.029h2.471
			v-0.687h-3.362l-0.035,4.357h3.5V24.39h-2.573V23.258z M71.996,21.541h1.407v3.638h0.927v-3.638h1.408v-0.754h-3.742V21.541z"/>
	</g>
</g>
<polygon fill="#FFFFFF" points="88.197,9.833 85.694,9.833 85.709,9.492 88.258,9.492 "/>
<polygon fill="#FFFFFF" points="88.335,9.013 85.787,9.013 85.973,8.241 88.584,8.241 "/>
<path fill="#FFFFFF" d="M88.705,7.886h-2.642c0,0,0.882-2.903,3.043-4.788c2.161-1.883,4.725-2.795,6.968-2.795
	c2.236,0,3.651,0.416,5.063,1.174c1.085,0.582,2.146,1.437,2.362,1.653c0.218,0.216,0.974,0.864,1.762,2.115l1.144,0.016
	l-1.868,3.09l-3.616-3.059h1.205c0,0-1.527-1.622-3.646-2.194c-2.114-0.571-4.003-0.153-4.753,0.093
	c-1.084,0.355-2.388,1.247-2.983,1.761C89.617,5.924,88.705,7.886,88.705,7.886z"/>
<path fill="#FFFFFF" d="M93.322,10.202h-2.44V8.937h3.493c0,0-0.077,1.918-0.077,2.208c0,0.278-0.094,1.173-0.467,1.821
	c-0.028,0.056,0.837,0.959,0.837,0.959v1.451l-1.438-1.514c0,0-0.571,0.587-1.017,0.88c-0.449,0.294-1.438,0.634-1.438,0.634v-1.358
	c0,0,0.975-0.387,1.469-0.741c0.494-0.356,0.788-1.066,0.94-1.469C93.338,11.407,93.322,10.202,93.322,10.202z"/>
<path fill="#FFFFFF" d="M96.877,12.318h-1.961v-1.234h1.991v-0.835h-1.778V8.905h3.831v1.328h-1.144v0.819h1.376v1.267h-1.391
	l-0.185,1.452c0,0-0.354,0.851-1.004,1.096c-0.648,0.248-1.42,0.479-1.42,0.479v-1.42c0,0,0.965-0.117,1.327-0.479
	C96.883,13.083,96.877,12.318,96.877,12.318z"/>
<polygon fill="#FFFFFF" points="99.594,12.271 99.594,11.084 103.069,11.084 103.069,12.286 "/>
<path fill="#FFFFFF" d="M103.625,13.23V8.905h0.958v4.662c0,0-0.247,0.82-0.557,1.13c-0.309,0.309-1.191,0.679-1.191,0.679v-1.435
	c0,0,0.349-0.134,0.529-0.311C103.54,13.454,103.625,13.23,103.625,13.23z"/>
<path fill="#FFFFFF" d="M105.076,15.345V8.92h0.971v4.632c0,0,0.219-0.015,0.326-0.122c0.109-0.107,0.202-0.387,0.202-0.387v-1.236
	h0.879v1.716c0,0-0.446,0.973-0.832,1.219C106.233,14.989,105.076,15.345,105.076,15.345z"/>
<polygon fill="#FFFFFF" points="105.633,15.964 102.684,15.964 103.015,15.631 105.786,15.631 "/>
<polygon fill="#FFFFFF" points="104.829,17.214 101.522,17.214 102.336,16.401 105.369,16.401 "/>
<path fill="#FFFFFF" d="M101.014,17.57h3.569c0,0-1.144,1.373-1.807,1.82c-0.665,0.45-2.287,1.451-3.444,1.748
	c-1.159,0.293-2.194,0.616-4.557,0.293c-2.363-0.324-3.752-1.205-4.432-1.638c-0.68-0.435-2.41-2.146-2.813-2.766
	c-0.401-0.615-1.034-1.96-1.034-1.96l-0.509-1.406H84.63l2.346-3.136l3.229,3.089h-1.605c0,0,0.293,0.958,1.001,1.962
	c0.713,1.005,1.886,2.224,3.538,2.872c1.654,0.648,2.812,0.665,3.567,0.665c0.758,0,2.179-0.419,2.611-0.555
	C99.747,18.42,101.014,17.57,101.014,17.57z"/>
<polygon fill="#FFFFFF" points="114.598,10.854 114.859,10.377 117.904,10.407 117.641,10.84 "/>
<polygon fill="#FFFFFF" points="115.107,9.99 115.571,9.156 118.612,9.156 118.086,10.005 "/>
<path fill="#FFFFFF" d="M118.845,8.739h-3.01l4.4-7.615c0,0,0.568-1.158,1.776-1.158c0.94,0,1.744,1.205,1.744,1.205l2.656,4.603
	c0,0,1.498,0.046,1.45,0c-0.044-0.046-1.188,3.042-1.188,3.042l-5.129-3.042h1.809l-1.005-1.776c0,0-0.185-0.2-0.387-0.2
	c-0.198,0-0.408,0.208-0.408,0.208L118.845,8.739z"/>
<path fill="#FFFFFF" d="M122.908,10.392h-3.802v-1.25h4.851v1.296c0,0,0.031,0.959-0.494,1.484
	c-0.525,0.522-1.713,0.539-1.713,0.539l-0.079,0.804c0,0-0.094,0.757-0.293,1.097c-0.201,0.339-0.465,0.711-0.758,0.864
	c-0.291,0.154-1.528,0.245-1.528,0.245v-1.358c0,0,0.711,0,1.173-0.213c0.465-0.218,0.54-0.759,0.54-0.759v-1.884h1.454
	c0,0,0.333-0.087,0.524-0.279C122.923,10.84,122.908,10.392,122.908,10.392z"/>
<path fill="#FFFFFF" d="M124.482,13.374V9.125h1.019v4.556c0,0-0.231,0.865-0.555,1.188c-0.326,0.324-1.359,0.555-1.359,0.555
	v-1.328c0,0,0.385,0.016,0.619-0.215C124.435,13.65,124.482,13.374,124.482,13.374z"/>
<path fill="#FFFFFF" d="M126.026,15.425V9.156h1.003v4.744c0,0,0.264,0.076,0.528-0.188c0.261-0.262,0.261-0.647,0.261-0.647v-0.728
	h0.88v1.329c0,0-0.17,0.882-0.88,1.329C127.107,15.441,126.026,15.425,126.026,15.425z"/>
<rect x="129.129" y="9.156" fill="#FFFFFF" width="4.264" height="1.206"/>
<rect x="129.115" y="11.01" fill="#FFFFFF" width="4.294" height="1.234"/>
<path fill="#FFFFFF" d="M129.1,14.176v-1.298c0,0,0.712-0.032,1.342,0.23c0.635,0.266,1.051,0.651,1.577,0.853
	c0.525,0.199,1.374,0.291,1.374,0.291v1.251c0,0-0.603,0.031-1.065-0.123c-0.462-0.154-1.104-0.501-1.221-0.618
	c-0.113-0.116-0.818-0.464-0.94-0.464C130.041,14.298,129.1,14.176,129.1,14.176z"/>
<polygon fill="#FFFFFF" points="128.976,15.487 131.973,15.487 132.295,16.014 129.285,16.014 "/>
<polygon fill="#FFFFFF" points="129.518,16.415 132.559,16.415 132.991,17.219 130.012,17.219 "/>
<path fill="#FFFFFF" d="M130.058,17.649h3.166c0,0,0.276,0.572,0.276,1.004c0,0.434-0.2,0.897-0.602,1.298
	c-0.401,0.402-1.575,0.542-1.853,0.542c-0.276,0-18.27,0.028-18.27,0.028s-0.942-0.059-1.328-0.276
	c-0.387-0.218-0.928-0.804-0.928-1.112c0-0.311-0.109-0.896,0.155-1.436c0.262-0.542,1.728-2.997,1.728-2.997h-1.696l5.096-3.089
	l1.173,3.06h-1.56l-1.437,2.471c0,0-0.153,0.416-0.076,0.571c0.076,0.153,0.277,0.276,0.585,0.276
	c0.311,0,15.073,0.017,15.073,0.017s0.258-0.009,0.372-0.123C130.049,17.766,130.058,17.649,130.058,17.649z"/>
</svg>
