<?xml version="1.0" encoding="utf-8"?>
<!-- Generator: Adobe Illustrator 13.0.3, SVG Export Plug-In . SVG Version: 6.00 Build 14948)  -->
<!DOCTYPE svg PUBLIC "-//W3C//DTD SVG 1.1//EN" "http://www.w3.org/Graphics/SVG/1.1/DTD/svg11.dtd">
<svg version="1.1" id="レイヤー_1" xmlns="http://www.w3.org/2000/svg" xmlns:xlink="http://www.w3.org/1999/xlink" x="0px"
	 y="0px" width="150px" height="30px" viewBox="-15.5 -4 150 30" enable-background="new -15.5 -4 150 30" xml:space="preserve">
<g>
	<path fill="#FFFFFF" d="M0.156,17.445c0.92-0.02,3.121-0.14,4.321-0.36c0.02,0.66,0.06,1.381,0.08,2.021
		c-1.2,0.16-3.301,0.24-4.221,0.24h-4.741c-3.261,0-4.781-1.38-4.781-4.4V3.303l2.581,0.14c-0.02,0.2-0.18,0.36-0.58,0.42v6.201
		c2.821-0.899,6.822-2.46,9.302-3.82l1.38,1.9c-0.08,0.06-0.18,0.08-0.3,0.08c-0.1,0-0.2-0.021-0.3-0.061
		c-2.161,1.081-6.662,2.801-10.083,3.781v3.021c0,1.841,0.88,2.48,2.821,2.48H0.156z M2.117,2.662c0.84,0.78,1.82,2.021,2.36,2.86
		l-1,0.74c-0.5-0.84-1.541-2.18-2.301-2.88L2.117,2.662z M4.737,1.582c0.86,0.78,1.86,1.98,2.38,2.82l-0.98,0.74
		c-0.52-0.82-1.58-2.101-2.32-2.82L4.737,1.582z"/>
	<path fill="#FFFFFF" d="M8.495,4.063c2.041,0.62,4.441,1.681,5.901,2.661l-1.041,1.8c-1.44-1-3.821-2.061-5.801-2.761L8.495,4.063z
		 M8.115,17.745c6.901-2.12,11.582-6.081,13.942-11.602c0.58,0.46,1.261,0.84,1.841,1.16c-2.48,5.461-7.322,9.742-14.023,12.042
		c-0.02,0.2-0.16,0.4-0.32,0.48L8.115,17.745z"/>
	<path fill="#FFFFFF" d="M31.756,11.364c0,1.28-1.04,2.32-2.32,2.32s-2.32-1.04-2.32-2.32s1.04-2.32,2.32-2.32
		C30.756,9.044,31.756,10.124,31.756,11.364z"/>
	<path fill="#FFFFFF" d="M45.376,12.024v5.642h4.341v-4.521l2.44,0.14c-0.02,0.16-0.16,0.28-0.479,0.341v7.021h-1.961v-1.141H39.215
		v1.221h-1.9v-7.582l2.38,0.12c-0.02,0.18-0.159,0.3-0.479,0.34v4.062h4.221v-5.642h-8.222v-1.86h8.222V6.383h-3.701
		c-0.64,1.381-1.4,2.641-2.24,3.581c-0.4-0.32-1.16-0.84-1.641-1.101c1.48-1.56,2.681-4.301,3.321-7.021l2.38,0.62
		c-0.04,0.141-0.22,0.24-0.479,0.221c-0.16,0.62-0.36,1.24-0.58,1.86h11.442v1.84h-6.562v3.781h8.302v1.86H45.376z"/>
</g>
<g>
	<g>
		<path fill="#FFFFFF" d="M74.032,1.785c0,0,0.686-0.78,1.402-0.78c0.718,0,1.373,0.717,1.373,0.717l1.779,3.058l-1.063,0.624
			l2.917,0.749l0.702-2.777L80.24,3.874l-2.246-3.556c0,0-0.75-0.718-1.187-0.968c-0.436-0.25-1.386-0.494-2.466-0.219
			c-0.765,0.195-1.746,1.373-1.746,1.373l-2.901,4.93l1.652,0.967L74.032,1.785z M84.545,11.424l-2.568-4.481l-1.582,0.926
			c0,0,2.186,3.682,2.528,4.306c0.344,0.625,0.281,1.341,0.312,1.311c0.032-0.03,0.063,0.529-0.53,1.061
			c-0.593,0.53-1.311,0.5-1.311,0.5h-3.462l0.008-1.195l-2.037,2.194l2.029,1.965v-1.155c0,0,2.995,0.096,4.023-0.03
			c1.029-0.124,1.997-0.749,2.464-1.185c0.47-0.439,0.719-1.375,0.719-2.154C85.138,12.704,84.545,11.424,84.545,11.424z
			 M74.529,15.105c0,0-4.336,0-5.178-0.091c-0.845-0.096-1.53-0.645-1.624-1.187c-0.115-0.679,0.124-1.529,0.124-1.529l1.593-2.714
			l0.967,0.577l-0.725-2.785l-2.8,0.741l0.935,0.624l-1.654,2.838c-0.335,0.875-0.529,1.81-0.404,2.498
			c0.124,0.686,0.437,1.466,1.342,2.09c0.905,0.622,2.027,0.716,2.027,0.716l5.43-0.061L74.529,15.105z M74.654,6.652
			c-0.279,0.249-1.181,0.409-1.181,0.409L73.47,7.837l1.402,0.031l0.032,5.181h1.186V5.715h-0.968
			C75.122,5.715,74.936,6.402,74.654,6.652z M72.407,19.975l-2.183,0.03l0.032,3.994l0.779-0.031l0.03-1.499h1.341
			c0,0,0.937-0.405,0.937-1.31S72.407,19.975,72.407,19.975z M72.185,21.863l-1.118,0.016l-0.008-1.243l1.101-0.007
			c0,0,0.468,0.155,0.468,0.591C72.627,21.759,72.185,21.863,72.185,21.863z M74.936,22.189h2.06v-0.655h-2.068l0.009-0.936h2.246
			v-0.624h-3.057l-0.032,3.961h3.182v-0.717h-2.339V22.189z M77.587,20.629h1.279v3.307h0.843v-3.307h1.28v-0.686h-3.402V20.629z"/>
	</g>
</g>
<polygon fill="#FFFFFF" points="92.315,9.984 90.04,9.984 90.054,9.675 92.371,9.675 "/>
<polygon fill="#FFFFFF" points="92.44,9.24 90.125,9.24 90.293,8.538 92.667,8.538 "/>
<path fill="#FFFFFF" d="M92.777,8.215h-2.401c0,0,0.802-2.64,2.767-4.353c1.964-1.712,4.295-2.541,6.334-2.541
	c2.033,0,3.319,0.378,4.604,1.067c0.986,0.529,1.951,1.306,2.147,1.502c0.197,0.196,0.885,0.786,1.602,1.923l1.039,0.014
	l-1.698,2.809l-3.287-2.78h1.096c0,0-1.389-1.475-3.314-1.995c-1.922-0.519-3.639-0.139-4.321,0.084
	c-0.985,0.323-2.17,1.134-2.712,1.601C93.606,6.432,92.777,8.215,92.777,8.215z"/>
<path fill="#FFFFFF" d="M96.975,10.321h-2.219V9.17h3.176c0,0-0.07,1.744-0.07,2.008c0,0.253-0.085,1.066-0.424,1.655
	c-0.026,0.051,0.761,0.872,0.761,0.872v1.319l-1.308-1.376c0,0-0.52,0.533-0.925,0.8c-0.408,0.267-1.308,0.576-1.308,0.576v-1.235
	c0,0,0.887-0.352,1.336-0.674c0.449-0.324,0.716-0.97,0.854-1.335C96.989,11.416,96.975,10.321,96.975,10.321z"/>
<path fill="#FFFFFF" d="M100.206,12.244h-1.782v-1.122h1.81v-0.759h-1.616V9.142h3.482v1.207h-1.039v0.744h1.251v1.151h-1.265
	l-0.168,1.32c0,0-0.322,0.773-0.912,0.996c-0.59,0.226-1.291,0.436-1.291,0.436v-1.291c0,0,0.877-0.106,1.206-0.436
	C100.212,12.939,100.206,12.244,100.206,12.244z"/>
<polygon fill="#FFFFFF" points="102.676,12.201 102.676,11.122 105.836,11.122 105.836,12.215 "/>
<path fill="#FFFFFF" d="M106.341,13.073V9.142h0.871v4.238c0,0-0.225,0.746-0.506,1.027c-0.281,0.28-1.083,0.617-1.083,0.617V13.72
	c0,0,0.316-0.121,0.48-0.282C106.264,13.277,106.341,13.073,106.341,13.073z"/>
<path fill="#FFFFFF" d="M107.66,14.996V9.155h0.883v4.211c0,0,0.198-0.013,0.296-0.11c0.1-0.098,0.184-0.352,0.184-0.352V11.78h0.8
	v1.56c0,0-0.406,0.885-0.757,1.108C108.712,14.673,107.66,14.996,107.66,14.996z"/>
<polygon fill="#FFFFFF" points="108.166,15.559 105.485,15.559 105.786,15.256 108.306,15.256 "/>
<polygon fill="#FFFFFF" points="107.436,16.695 104.43,16.695 105.169,15.956 107.927,15.956 "/>
<path fill="#FFFFFF" d="M103.967,17.019h3.245c0,0-1.04,1.249-1.643,1.655c-0.604,0.409-2.079,1.319-3.131,1.589
	c-1.054,0.267-1.995,0.561-4.143,0.267c-2.148-0.295-3.411-1.096-4.029-1.489c-0.617-0.395-2.19-1.951-2.558-2.514
	c-0.364-0.56-0.939-1.782-0.939-1.782l-0.463-1.278h-1.234l2.133-2.851l2.935,2.809h-1.459c0,0,0.267,0.87,0.91,1.783
	c0.647,0.913,1.714,2.021,3.216,2.611c1.504,0.589,2.557,0.604,3.243,0.604c0.689,0,1.98-0.381,2.374-0.505
	C102.815,17.791,103.967,17.019,103.967,17.019z"/>
<polygon fill="#FFFFFF" points="116.316,10.914 116.554,10.479 119.322,10.507 119.082,10.901 "/>
<polygon fill="#FFFFFF" points="116.779,10.128 117.201,9.369 119.966,9.369 119.487,10.142 "/>
<path fill="#FFFFFF" d="M120.177,8.991h-2.736l4.001-6.922c0,0,0.517-1.053,1.614-1.053c0.855,0,1.586,1.095,1.586,1.095
	l2.415,4.184c0,0,1.361,0.042,1.318,0c-0.04-0.042-1.08,2.766-1.08,2.766l-4.662-2.766h1.644l-0.913-1.615
	c0,0-0.168-0.182-0.352-0.182c-0.181,0-0.371,0.189-0.371,0.189L120.177,8.991z"/>
<path fill="#FFFFFF" d="M123.871,10.493h-3.456V9.356h4.409v1.179c0,0,0.028,0.872-0.449,1.349c-0.478,0.476-1.557,0.49-1.557,0.49
	l-0.072,0.73c0,0-0.085,0.688-0.267,0.997c-0.183,0.309-0.422,0.646-0.688,0.786c-0.265,0.14-1.39,0.223-1.39,0.223v-1.235
	c0,0,0.646,0,1.066-0.193c0.423-0.198,0.491-0.689,0.491-0.689v-1.713h1.321c0,0,0.303-0.079,0.478-0.254
	C123.885,10.901,123.871,10.493,123.871,10.493z"/>
<path fill="#FFFFFF" d="M125.302,13.204V9.342h0.927v4.142c0,0-0.211,0.787-0.505,1.081c-0.296,0.295-1.235,0.504-1.235,0.504
	v-1.207c0,0,0.35,0.014,0.563-0.195C125.259,13.455,125.302,13.204,125.302,13.204z"/>
<path fill="#FFFFFF" d="M126.706,15.068V9.369h0.911v4.313c0,0,0.24,0.069,0.48-0.171c0.237-0.238,0.237-0.589,0.237-0.589v-0.661
	h0.8v1.208c0,0-0.154,0.802-0.8,1.208C127.688,15.084,126.706,15.068,126.706,15.068z"/>
<rect x="129.526" y="9.369" fill="#FFFFFF" width="3.876" height="1.096"/>
<rect x="129.514" y="11.055" fill="#FFFFFF" width="3.903" height="1.122"/>
<path fill="#FFFFFF" d="M129.5,13.933v-1.18c0,0,0.646-0.029,1.22,0.21c0.577,0.241,0.955,0.592,1.434,0.774
	c0.478,0.182,1.249,0.265,1.249,0.265v1.138c0,0-0.548,0.028-0.969-0.112c-0.42-0.14-1.004-0.455-1.109-0.562
	c-0.104-0.105-0.744-0.422-0.855-0.422C130.355,14.044,129.5,13.933,129.5,13.933z"/>
<polygon fill="#FFFFFF" points="129.387,15.125 132.111,15.125 132.404,15.604 129.668,15.604 "/>
<polygon fill="#FFFFFF" points="129.88,15.969 132.645,15.969 133.037,16.699 130.329,16.699 "/>
<path fill="#FFFFFF" d="M130.37,17.091h2.879c0,0,0.251,0.521,0.251,0.913c0,0.394-0.182,0.815-0.547,1.18
	c-0.365,0.365-1.432,0.492-1.685,0.492c-0.251,0-16.608,0.026-16.608,0.026s-0.856-0.054-1.207-0.252
	c-0.352-0.197-0.844-0.73-0.844-1.011c0-0.282-0.1-0.815,0.142-1.305c0.237-0.493,1.57-2.725,1.57-2.725h-1.542l4.632-2.809
	l1.066,2.781h-1.418l-1.306,2.246c0,0-0.14,0.379-0.069,0.52c0.069,0.14,0.252,0.251,0.532,0.251c0.282,0,13.703,0.016,13.703,0.016
	s0.234-0.008,0.338-0.112C130.362,17.196,130.37,17.091,130.37,17.091z"/>
</svg>
