<?xml version="1.0" encoding="utf-8"?>
<!-- Generator: Adobe Illustrator 13.0.3, SVG Export Plug-In . SVG Version: 6.00 Build 14948)  -->
<!DOCTYPE svg PUBLIC "-//W3C//DTD SVG 1.1//EN" "http://www.w3.org/Graphics/SVG/1.1/DTD/svg11.dtd">
<svg version="1.1" id="レイヤー_1" xmlns="http://www.w3.org/2000/svg" xmlns:xlink="http://www.w3.org/1999/xlink" x="0px"
	 y="0px" width="120px" height="23px" viewBox="0 0 120 23" enable-background="new 0 0 120 23" xml:space="preserve">
<g>
	<path fill="#FFFFFF" d="M29.808,3.935c-0.076,0.133-0.208,0.19-0.456,0.171c-1.33,3.002-3.534,5.813-5.946,7.523
		c-0.228-0.247-0.684-0.684-1.007-0.912c2.355-1.596,4.541-4.351,5.775-7.333L29.808,3.935z M36.458,10.28l0.304-0.019l0.722,0.076
		c0,0.133-0.019,0.304-0.019,0.456c-0.304,6.136-0.589,8.34-1.254,9.062c-0.532,0.608-1.102,0.665-2.261,0.665
		c-0.646,0-1.463-0.02-2.28-0.076c-0.019-0.38-0.19-0.912-0.418-1.273c1.292,0.115,2.527,0.134,2.983,0.134
		c0.399,0,0.627-0.038,0.817-0.247c0.494-0.494,0.798-2.47,1.044-7.523h-5.224c-0.513,3.648-1.577,7.333-6.668,9.157
		c-0.171-0.323-0.513-0.817-0.817-1.083c4.597-1.539,5.68-4.73,6.136-8.074h-4.084V10.28H36.458z M34.786,3.346
		c1.254,2.622,3.742,5.566,5.851,7.01c-0.342,0.266-0.817,0.779-1.064,1.14c-2.127-1.691-4.578-4.806-6.003-7.656L34.786,3.346z"/>
	<path fill="#FFFFFF" d="M49.416,12.369l0.266-0.019l0.665,0.075c0,0.134-0.019,0.267-0.019,0.418
		c-0.228,4.902-0.437,6.631-0.931,7.22c-0.418,0.475-0.741,0.532-2.109,0.532c-0.456,0-0.969,0-1.501-0.039
		c-0.038-0.36-0.171-0.836-0.342-1.139c0.969,0.094,1.919,0.094,2.242,0.094c0.342,0,0.513-0.037,0.665-0.208
		c0.361-0.38,0.57-1.862,0.741-5.775h-3.325c-0.437,2.603-1.292,5.319-3.229,7.048c-0.19-0.266-0.589-0.627-0.893-0.836
		c2.507-2.166,3.059-6.421,3.268-9.65h-2.166V3.84h7.561v6.25h-4.123c-0.076,0.703-0.133,1.482-0.247,2.279H49.416z M43.926,5.018
		v3.914h5.148V5.018H43.926z M52.361,5.284l1.615,0.095c-0.019,0.133-0.114,0.228-0.361,0.266v10.258h-1.254V5.284z M57.129,3.327
		l1.634,0.095c-0.019,0.152-0.114,0.228-0.361,0.266v15.179c0,0.911-0.266,1.311-0.836,1.52c-0.608,0.228-1.653,0.246-3.419,0.246
		c-0.076-0.342-0.285-0.93-0.494-1.291c0.703,0.019,1.349,0.019,1.88,0.019c1.52,0,1.596,0,1.596-0.493V3.327z"/>
	<path fill="#FFFFFF" d="M65.984,2.966l1.634,0.114c-0.02,0.133-0.133,0.228-0.38,0.247v17.269h-1.254v-5.301
		c-1.729,0.532-3.458,1.064-4.578,1.387c-0.02,0.152-0.134,0.229-0.247,0.285l-0.57-1.463l1.425-0.342V5.188l1.577,0.095
		c-0.02,0.133-0.114,0.228-0.38,0.266v9.308c0.873-0.227,1.823-0.493,2.773-0.74V2.966z M76.907,4.41l0.798,0.304
		c-0.038,0.095-0.095,0.171-0.171,0.228c-0.646,4.274-1.956,7.77-3.724,10.468c1.235,1.767,2.774,3.191,4.654,4.103
		c-0.304,0.248-0.722,0.723-0.931,1.084c-1.823-0.969-3.306-2.355-4.521-4.066c-1.329,1.748-2.887,3.098-4.578,4.066
		c-0.189-0.342-0.569-0.836-0.874-1.102c1.71-0.894,3.306-2.299,4.674-4.161c-1.501-2.546-2.526-5.718-3.229-9.29l1.178-0.209
		c0.589,3.134,1.52,5.984,2.85,8.321c1.405-2.28,2.508-5.129,3.097-8.416H67.96V4.486h8.72L76.907,4.41z"/>
	<path fill="#FFFFFF" d="M97.104,15.809h-6.858c1.862,1.48,4.73,2.754,7.238,3.361c-0.285,0.248-0.646,0.723-0.836,1.045
		c-2.564-0.74-5.585-2.26-7.561-3.97v4.351h-1.273v-4.294c-1.956,1.729-4.939,3.286-7.428,4.085
		c-0.189-0.342-0.57-0.817-0.854-1.083c2.45-0.665,5.319-1.995,7.162-3.495h-6.782v-1.064h7.902v-1.33h-5.547V7.772
		c-0.589,0.684-1.254,1.368-1.976,1.995c-0.209-0.304-0.608-0.722-0.893-0.893c2.165-1.767,3.742-4.123,4.597-5.946l1.596,0.266
		c-0.038,0.133-0.151,0.228-0.398,0.247c-0.305,0.57-0.665,1.197-1.083,1.843h3.856c0.398-0.722,0.836-1.653,1.083-2.337
		l1.634,0.323c-0.038,0.133-0.171,0.19-0.418,0.209c-0.247,0.513-0.627,1.197-0.988,1.805h6.421v1.063h-6.307v1.349h5.604v0.95
		h-5.604v1.368h5.642v0.95h-5.642v1.405h7.162v1.045h-7.182c-0.057,0.038-0.151,0.076-0.284,0.096v1.234h8.017V15.809z
		 M88.156,7.696V6.347h-4.654v1.349H88.156z M88.156,10.014V8.646h-4.654v1.368H88.156z M83.502,10.964v1.405h4.654v-1.405H83.502z"
		/>
</g>
</svg>
