<?xml version="1.0" encoding="utf-8"?>
<!-- Generator: Adobe Illustrator 13.0.3, SVG Export Plug-In  -->
<!DOCTYPE svg PUBLIC "-//W3C//DTD SVG 1.1//EN" "http://www.w3.org/Graphics/SVG/1.1/DTD/svg11.dtd" [
	<!ENTITY ns_flows "http://ns.adobe.com/Flows/1.0/">
]>
<svg version="1.1"
	 xmlns="http://www.w3.org/2000/svg" xmlns:xlink="http://www.w3.org/1999/xlink" xmlns:a="http://ns.adobe.com/AdobeSVGViewerExtensions/3.0/"
	 x="0px" y="0px" width="120px" height="23px" viewBox="-9.823 -0.298 120 23" enable-background="new -9.823 -0.298 120 23"
	 xml:space="preserve">
<defs>
</defs>
<path fill="#FFFFFF" d="M11.287,4.508c1.105,2.261,3.298,4.811,5.167,6.204c-0.425,0.34-1.054,0.985-1.36,1.428
	c-0.476-0.408-0.952-0.884-1.445-1.411c0,0.137-0.017,0.34-0.034,0.527c-0.221,5.405-0.459,7.411-1.054,8.091
	c-0.391,0.493-0.799,0.629-1.428,0.714c-0.272,0.034-0.646,0.052-1.071,0.052c-0.493,0-1.054-0.018-1.615-0.052
	c-0.017-0.492-0.238-1.173-0.527-1.632c1.054,0.103,2.04,0.119,2.448,0.119c0.34,0,0.544-0.051,0.731-0.238
	c0.408-0.425,0.629-2.057,0.799-6.085H7.87c-0.476,3.179-1.377,6.357-5.966,8.04c-0.187-0.425-0.663-1.088-1.037-1.444
	c3.995-1.326,4.913-3.842,5.287-6.596H2.907v-1.394c-0.527,0.526-1.071,1.003-1.632,1.428C0.986,11.936,0.374,11.341,0,11.052
	c2.057-1.394,4.012-3.876,5.083-6.511l2.006,0.681C7.02,5.358,6.85,5.443,6.612,5.409C5.745,7.33,4.487,9.182,3.077,10.662h9.281
	l0.374-0.018l0.918,0.085c-1.479-1.598-2.924-3.638-3.926-5.592L11.287,4.508z"/>
<path fill="#FFFFFF" d="M24.003,12.616l0.34-0.017l0.833,0.085c-0.017,0.136-0.034,0.306-0.034,0.459
	c-0.17,4.283-0.357,5.864-0.833,6.408c-0.476,0.578-0.952,0.595-2.074,0.595c-0.374,0-0.782,0-1.207-0.017
	c-0.034-0.425-0.204-1.02-0.425-1.411c0.782,0.085,1.53,0.085,1.836,0.085c0.272,0,0.442-0.034,0.595-0.187
	c0.272-0.323,0.442-1.513,0.578-4.572h-2.431c-0.391,2.227-1.156,4.538-2.873,6.102c-0.238-0.374-0.714-0.85-1.104-1.104
	c2.209-1.955,2.635-5.474,2.821-8.228H18.19V5.052h6.918v5.762h-3.519c-0.051,0.562-0.102,1.173-0.187,1.802H24.003z M19.652,6.48
	v2.906h3.893V6.48H19.652z M28.61,6.446c-0.017,0.136-0.119,0.238-0.391,0.271v9.196h-1.564V6.327L28.61,6.446z M30.803,4.593
	l1.988,0.102C32.774,4.848,32.689,4.95,32.4,4.984v13.14c0,1.853-0.765,2.091-4.097,2.057c-0.085-0.441-0.34-1.189-0.578-1.648
	c0.697,0.034,1.377,0.034,1.887,0.034c1.071,0,1.19,0,1.19-0.442V4.593z"/>
<path fill="#FFFFFF" d="M42.005,4.134v1.189l-3.161,1.479v10.794l3.161,1.479v1.189l-4.249-1.972V6.106L42.005,4.134z"/>
<path fill="#FFFFFF" d="M45.169,14.554c-0.052,0.152-0.188,0.204-0.374,0.187c-0.188,1.428-0.562,3.06-1.054,4.063
	c-0.307-0.187-0.816-0.425-1.156-0.561c0.459-0.952,0.765-2.567,0.952-4.063L45.169,14.554z M48.704,13.84
	c-0.067-0.255-0.17-0.544-0.306-0.867l-1.462,0.085v7.122h-1.428v-7.037c-0.867,0.034-1.649,0.085-2.278,0.102
	c-0.033,0.153-0.17,0.222-0.289,0.238l-0.34-1.666l1.275-0.017c0.323-0.374,0.646-0.816,0.969-1.275
	c-0.51-0.747-1.394-1.699-2.142-2.396l0.781-1.088l0.442,0.391c0.544-0.985,1.139-2.227,1.479-3.178l1.649,0.68
	c-0.051,0.119-0.204,0.17-0.408,0.17c-0.442,0.952-1.189,2.277-1.802,3.229c0.323,0.34,0.612,0.68,0.833,0.986
	c0.697-1.055,1.343-2.159,1.802-3.077l1.598,0.73c-0.068,0.103-0.221,0.171-0.425,0.171c-0.833,1.376-2.125,3.212-3.298,4.64
	l2.481-0.051c-0.255-0.51-0.561-1.02-0.85-1.479l1.173-0.527c0.765,1.105,1.547,2.55,1.819,3.502L48.704,13.84z M48.603,14.129
	c0.441,0.969,0.9,2.261,1.07,3.093c-0.356,0.119-0.714,0.256-1.292,0.442c-0.152-0.833-0.595-2.159-1.002-3.145L48.603,14.129z
	 M58.683,12.259h-2.941c0.238,3.331,0.748,6.188,1.599,6.188c0.237,0,0.391-1.054,0.492-2.38c0.307,0.306,0.833,0.73,1.173,0.935
	c-0.237,2.21-0.884,3.162-1.699,3.162c-0.222,0-0.477-0.068-0.714-0.222c-1.462-0.577-2.057-3.604-2.313-7.683h-2.481v5.507
	l2.839-0.561l0.153,1.36c-1.785,0.425-3.655,0.866-4.879,1.121c-0.017,0.153-0.119,0.238-0.238,0.289l-0.68-1.683
	c0.374-0.068,0.816-0.136,1.275-0.221V5.817l0.935,0.306c2.091-0.493,4.317-1.189,5.66-1.887l1.411,1.275
	c-0.068,0.067-0.153,0.067-0.391,0.067c-0.544,0.238-1.19,0.459-1.904,0.697c-0.034,0.136-0.17,0.221-0.408,0.255
	c0,1.428,0.034,2.855,0.103,4.198h3.009V12.259z M51.798,10.729h2.38c-0.051-1.24-0.085-2.55-0.119-3.909
	c-0.748,0.204-1.513,0.391-2.261,0.544V10.729z"/>
<path fill="#FFFFFF" d="M59.415,4.134l4.25,1.972v12.188l-4.25,1.972v-1.189l3.162-1.479V6.802l-3.162-1.479V4.134z"/>
<path fill="#FFFFFF" d="M75.218,6.621c0,0,1.908-2.771,4.32-4.392c2.411-1.62,4.175-1.836,5.435-2.124
	c1.261-0.288,3.204,0.108,3.204,0.108s2.125,0.685,2.305,0.864l1.908,1.439l1.476-1.476v4.788h-4.788l1.603-1.602
	c0,0-1.566-1.278-2.538-1.494c0,0-1.584-0.36-2.772-0.216c-1.967,0.239-3.78,1.368-4.968,2.052c-1.188,0.684-3.456,3.78-3.456,3.78
	L75.218,6.621z"/>
<polygon fill="#FFFFFF" points="74.534,7.917 75.001,6.873 76.711,8.583 76.226,9.825 "/>
<polygon fill="#FFFFFF" points="74.173,8.565 75.973,10.401 75.649,11.373 73.85,9.393 "/>
<polygon fill="#FFFFFF" points="73.562,10.257 75.542,12.31 75.542,13.245 73.453,11.193 "/>
<polygon fill="#FFFFFF" points="73.201,12.273 75.631,14.703 75.722,15.441 73.201,13.137 "/>
<polygon fill="#FFFFFF" points="91.993,6.585 94.621,9.285 94.621,9.933 92.209,7.413 "/>
<polygon fill="#FFFFFF" points="92.209,8.961 94.298,11.013 94.189,11.914 92.209,9.861 "/>
<polygon fill="#FFFFFF" points="92.03,10.689 93.83,12.668 93.542,13.606 91.776,11.84 "/>
<polygon fill="#FFFFFF" points="91.598,12.31 93.253,14.145 92.786,15.153 90.967,13.335 "/>
<path fill="#FFFFFF" d="M90.842,13.713l1.692,1.835c0,0-2.377,3.062-3.313,3.708c-1.051,0.729-4.067,2.342-5.291,2.558
	c-1.225,0.215-3.204,0.323-4.356-0.038c-1.151-0.358-2.771-0.862-4.104-2.196l-1.458,1.461v-4.772h4.698l-1.512,1.585
	c0,0,0.829,0.827,1.656,1.223c0.827,0.396,2.196,0.577,2.88,0.577c0.685,0,3.132-0.612,4.104-1.151
	c0.972-0.541,2.771-1.907,3.312-2.449C89.689,15.513,90.842,13.713,90.842,13.713z"/>
<path fill="#FFFFFF" d="M80.33,5.397l-0.829,1.512l-0.288-0.36l-0.937,1.548c0,0,0.758,0.576,0.865,0.647
	c0.107,0.072,0.646,0.972,0.646,0.972l-0.431,0.576l-1.008,0.036l0.144,1.476l1.764,0.035l-0.035,4.536l1.439,0.037l0.036-4.752
	l0.54-0.072l0.181,0.396l1.008-0.324l0.035,2.879H83.28l-0.323-2.376l-1.044,0.253l0.217,2.484h0.72l-0.036,1.547l3.24-0.792
	l0.035-1.62l-0.971,0.181l-0.037-3.276l0.864-0.036l0.144,2.448c0,0,0.434,2.053,0.721,2.449c0.288,0.396,0.936,0.719,0.936,0.719
	s0.648,0.073,0.937-0.431c0.287-0.504,0.648-1.405,0.648-1.405l-0.792-1.764c0,0-0.217,0.9-0.469,1.08s-0.36-1.116-0.36-1.116
	l-0.179-1.944l1.547,0.036l0.036-1.62l-1.62-0.036V7.557l1.584-0.289L88.43,5.505L85.98,5.901l-2.52,0.144l-0.035,4.68l-0.612-1.548
	l-1.045,0.467l0.181,0.612h-0.792l2.123-3.06l-1.475-0.612l-0.972,1.692l-0.288-0.36l1.188-2.016L80.33,5.397z"/>
<polygon fill="#FFFFFF" points="78.745,12.345 78.673,13.857 78.385,15.044 79.646,15.873 79.934,14.289 79.969,12.273 "/>
<polygon fill="#FFFFFF" points="85.153,7.665 85.153,9.321 85.909,9.249 85.873,7.701 "/>
</svg>
