<?xml version="1.0" encoding="utf-8"?>
<!-- Generator: Adobe Illustrator 13.0.3, SVG Export Plug-In  -->
<!DOCTYPE svg PUBLIC "-//W3C//DTD SVG 1.1//EN" "http://www.w3.org/Graphics/SVG/1.1/DTD/svg11.dtd" [
	<!ENTITY ns_flows "http://ns.adobe.com/Flows/1.0/">
]>
<svg version="1.1"
	 xmlns="http://www.w3.org/2000/svg" xmlns:xlink="http://www.w3.org/1999/xlink" xmlns:a="http://ns.adobe.com/AdobeSVGViewerExtensions/3.0/"
	 x="0px" y="0px" width="120px" height="23px" viewBox="-12.534 -2.133 120 23" enable-background="new -12.534 -2.133 120 23"
	 xml:space="preserve">
<defs>
</defs>
<text transform="matrix(1 0 0 1 0 15.833)" fill="#FFFFFF" font-family="'KozGoPro-Medium-90ms-RKSJ-H'" font-size="16">分別〔紙〕</text>
<g>
	<g>
		<path fill="#FFFFFF" d="M78.275,3.807c0.989-0.57,2.501-1.511,4.14-1.71c0.99-0.12,2.311,0.18,2.311,0.18
			c0.81,0.18,2.115,1.245,2.115,1.245l-1.336,1.335h3.99v-3.99l-1.229,1.23l-1.59-1.2c-0.15-0.15-1.921-0.72-1.921-0.72
			s-1.619-0.33-2.67-0.09c-1.05,0.24-2.52,0.42-4.529,1.77s-3.6,3.66-3.6,3.66l1.439,1.44C75.396,6.958,77.285,4.377,78.275,3.807z
			 M75.2,7.152l-1.425-1.425l-0.39,0.87l1.41,1.59L75.2,7.152z M74.585,8.667l-1.5-1.53l-0.27,0.69l1.5,1.65L74.585,8.667z
			 M74.226,10.258l-1.65-1.71l-0.09,0.78l1.74,1.71V10.258z M74.3,12.252l-2.024-2.024v0.72l2.101,1.92L74.3,12.252z M87.936,5.487
			l0.18,0.69l2.01,2.1v-0.54L87.936,5.487z M88.115,8.217l1.65,1.71l0.09-0.75l-1.74-1.71V8.217z M87.755,9.867l1.471,1.471
			l0.24-0.781l-1.5-1.649L87.755,9.867z M87.08,11.112l1.516,1.515l0.39-0.84l-1.38-1.529L87.08,11.112z M85.565,13.377
			c-0.45,0.451-1.95,1.59-2.76,2.041c-0.811,0.449-2.85,0.959-3.42,0.959s-1.711-0.15-2.4-0.48s-1.38-1.02-1.38-1.02l1.26-1.32
			H72.95v3.977l1.215-1.217c1.11,1.111,2.461,1.531,3.42,1.83c0.961,0.301,2.61,0.211,3.631,0.031
			c1.02-0.18,3.533-1.523,4.409-2.131c0.78-0.539,2.761-3.09,2.761-3.09l-1.41-1.529C86.976,11.428,86.016,12.928,85.565,13.377z
			 M83.015,11.127c0,0,0.361,1.711,0.601,2.041c0.24,0.33,0.78,0.6,0.78,0.6s0.54,0.061,0.78-0.359
			c0.239-0.42,0.54-1.171,0.54-1.171l-0.66-1.47c0,0-0.181,0.75-0.391,0.9c-0.21,0.149-0.3-0.931-0.3-0.931l-0.149-1.62l1.289,0.03
			l0.03-1.35l-1.35-0.03v-1.47l1.319-0.24l-0.539-1.47l-2.041,0.33l-2.1,0.12l-0.029,3.9l-0.511-1.29l-0.87,0.39l0.15,0.51h-0.66
			l1.77-2.55l-1.229-0.51l-0.81,1.41l-0.24-0.3l0.99-1.68l-1.17-0.42l-0.69,1.26l-0.24-0.3l-0.78,1.29c0,0,0.631,0.48,0.721,0.54
			c0.09,0.06,0.539,0.81,0.539,0.81l-0.359,0.48l-0.84,0.03l0.12,1.23l1.47,0.03l-0.029,3.779l1.199,0.031l0.03-3.96l0.45-0.06
			l0.15,0.33l0.84-0.27l0.029,2.4h-0.15l-0.27-1.98l-0.87,0.211l0.181,2.07h0.6l-0.03,1.289l2.7-0.66l0.029-1.35l-0.809,0.15
			l-0.031-2.73l0.721-0.03L83.015,11.127z M82.235,7.767v-1.38l0.6,0.03l0.03,1.29L82.235,7.767z M76.595,12.537l1.051,0.689
			l0.24-1.319l0.029-1.68l-1.02,0.06l-0.061,1.26L76.595,12.537z"/>
	</g>
</g>
</svg>
