<?xml version="1.0" encoding="utf-8"?>
<!-- Generator: Adobe Illustrator 13.0.3, SVG Export Plug-In  -->
<!DOCTYPE svg PUBLIC "-//W3C//DTD SVG 1.1//EN" "http://www.w3.org/Graphics/SVG/1.1/DTD/svg11.dtd" [
	<!ENTITY ns_flows "http://ns.adobe.com/Flows/1.0/">
]>
<svg version="1.1"
	 xmlns="http://www.w3.org/2000/svg" xmlns:xlink="http://www.w3.org/1999/xlink" xmlns:a="http://ns.adobe.com/AdobeSVGViewerExtensions/3.0/"
	 x="0px" y="0px" width="150px" height="30px" viewBox="-49.474 -6.097 150 30" enable-background="new -49.474 -6.097 150 30"
	 xml:space="preserve">
<defs>
</defs>
<path fill="#FFFFFF" d="M3.041,16.028c-0.06,0.18-0.22,0.24-0.44,0.22c-0.22,1.681-0.66,3.601-1.24,4.781
	C1,20.809,0.4,20.529,0,20.369c0.54-1.12,0.9-3.021,1.121-4.781L3.041,16.028z M7.202,15.187c-0.08-0.3-0.2-0.64-0.36-1.02
	l-1.721,0.1v8.382h-1.68v-8.281c-1.02,0.04-1.94,0.1-2.681,0.119c-0.04,0.181-0.2,0.261-0.34,0.28l-0.4-1.96l1.5-0.021
	c0.38-0.439,0.76-0.96,1.14-1.5c-0.6-0.88-1.64-2-2.521-2.82l0.92-1.28l0.52,0.46c0.64-1.16,1.34-2.621,1.74-3.741l1.94,0.801
	c-0.06,0.14-0.24,0.199-0.48,0.199c-0.52,1.121-1.4,2.681-2.121,3.802c0.38,0.399,0.72,0.8,0.98,1.16
	c0.82-1.24,1.58-2.541,2.12-3.621l1.88,0.86c-0.08,0.12-0.26,0.2-0.5,0.2c-0.98,1.62-2.5,3.78-3.881,5.461l2.921-0.061
	c-0.3-0.6-0.66-1.2-1-1.74l1.38-0.62c0.9,1.301,1.82,3.001,2.141,4.121L7.202,15.187z M7.082,15.528
	c0.52,1.14,1.061,2.66,1.26,3.641c-0.42,0.14-0.84,0.3-1.52,0.52c-0.18-0.979-0.7-2.54-1.181-3.7L7.082,15.528z M18.944,13.327
	h-3.461c0.28,3.921,0.88,7.282,1.88,7.282c0.28,0,0.46-1.24,0.58-2.801c0.36,0.36,0.98,0.86,1.38,1.101
	c-0.28,2.601-1.04,3.721-2,3.721c-0.26,0-0.56-0.08-0.84-0.261c-1.721-0.68-2.421-4.24-2.721-9.042h-2.921v6.481l3.341-0.66
	l0.18,1.601c-2.101,0.5-4.301,1.021-5.741,1.32c-0.02,0.18-0.14,0.28-0.28,0.34l-0.8-1.98c0.44-0.08,0.96-0.16,1.5-0.26V5.746
	l1.1,0.36c2.461-0.581,5.082-1.4,6.662-2.221l1.66,1.5c-0.08,0.08-0.18,0.08-0.46,0.08c-0.64,0.28-1.4,0.54-2.24,0.82
	c-0.04,0.16-0.2,0.26-0.48,0.3c0,1.681,0.04,3.361,0.12,4.941h3.541V13.327z M10.842,11.527h2.801c-0.06-1.461-0.1-3.001-0.14-4.602
	c-0.88,0.24-1.78,0.461-2.661,0.641V11.527z"/>
<path fill="#FFFFFF" d="M29.981,16.868c-0.02,0.26-0.06,0.521-0.12,0.78c1.18,0.82,2.64,1.881,3.42,2.58l-1.2,1.281
	c-0.62-0.601-1.74-1.501-2.8-2.281c-0.62,1.141-1.74,2.241-3.701,3.121c-0.18-0.42-0.68-1.101-1.021-1.421
	c2.621-1.14,3.441-2.64,3.681-4.061h-3.36v-1.641h3.44v-1.68l2.181,0.14c-0.02,0.16-0.16,0.26-0.46,0.32v1.22h3.501v1.641H29.981z
	 M28.381,13.187v-2.561c-0.8,1.08-1.76,2.061-2.681,2.66c-0.26-0.38-0.78-0.939-1.12-1.24c1.18-0.62,2.42-1.78,3.241-3H24.9V7.545
	h3.48V3.905l2.101,0.141c-0.02,0.16-0.14,0.26-0.44,0.3v3.2h3.44v1.501h-3.44v0.16c0.82,0.439,3.061,1.84,3.62,2.22l-1.02,1.36
	c-0.521-0.5-1.661-1.38-2.601-2.08v2.48H28.381z M26.561,4.465c0.5,0.72,0.98,1.681,1.12,2.32L26.3,7.346
	c-0.14-0.66-0.58-1.641-1.04-2.381L26.561,4.465z M30.722,6.845c0.36-0.68,0.82-1.74,1.08-2.46l1.781,0.62
	c-0.061,0.12-0.2,0.2-0.44,0.2c-0.3,0.6-0.8,1.521-1.221,2.12L30.722,6.845z M37.803,19.888c-0.061,0.08-0.181,0.141-0.36,0.16
	c-0.8,0.9-2.501,2.001-3.961,2.641c-0.28-0.38-0.84-0.92-1.24-1.26c1.44-0.58,3.081-1.621,3.861-2.501L37.803,19.888z M34.322,8.125
	h2.581c0.14-0.54,0.3-1.14,0.42-1.7h-3.661v-1.64h9.742v1.64h-4.141c-0.16,0.521-0.36,1.12-0.58,1.7h4.021v10.603h-8.382V8.125z
	 M40.904,11.227V9.586h-4.861v1.641H40.904z M40.904,14.248v-1.661h-4.861v1.661H40.904z M40.904,17.288v-1.68h-4.861v1.68H40.904z
	 M42.324,22.669c-0.68-0.761-2.16-1.921-3.32-2.701l1.36-0.94c1.14,0.74,2.66,1.841,3.421,2.601L42.324,22.669z"/>
<path fill="#FFFFFF" d="M64.329,7.945c0,0,2.289-3.326,5.184-5.27c2.894-1.944,5.01-2.204,6.521-2.549
	c1.514-0.346,3.846,0.129,3.846,0.129s2.55,0.821,2.766,1.037l2.289,1.728l1.771-1.771v5.746h-5.746l1.923-1.922
	c0,0-1.88-1.533-3.046-1.793c0,0-1.9-0.432-3.326-0.259c-2.36,0.286-4.537,1.642-5.962,2.462c-1.426,0.821-4.147,4.537-4.147,4.537
	L64.329,7.945z"/>
<polygon fill="#FFFFFF" points="63.508,9.5 64.068,8.248 66.12,10.299 65.538,11.79 "/>
<polygon fill="#FFFFFF" points="63.075,10.278 65.234,12.481 64.846,13.647 62.686,11.271 "/>
<polygon fill="#FFFFFF" points="62.34,12.308 64.717,14.772 64.717,15.893 62.21,13.431 "/>
<polygon fill="#FFFFFF" points="61.909,14.727 64.824,17.643 64.933,18.529 61.909,15.764 "/>
<polygon fill="#FFFFFF" points="84.458,7.902 87.612,11.142 87.612,11.919 84.717,8.896 "/>
<polygon fill="#FFFFFF" points="84.717,10.753 87.224,13.215 87.094,14.296 84.717,11.833 "/>
<polygon fill="#FFFFFF" points="84.503,12.827 86.663,15.202 86.317,16.327 84.199,14.208 "/>
<polygon fill="#FFFFFF" points="83.984,14.772 85.97,16.974 85.411,18.183 83.227,16.002 "/>
<path fill="#FFFFFF" d="M83.077,16.456l2.031,2.202c0,0-2.853,3.674-3.977,4.45c-1.261,0.875-4.881,2.81-6.349,3.068
	c-1.47,0.258-3.845,0.389-5.228-0.045c-1.382-0.431-3.326-1.035-4.926-2.636l-1.75,1.753v-5.727h5.639l-1.814,1.901
	c0,0,0.995,0.993,1.987,1.468c0.993,0.476,2.636,0.692,3.456,0.692c0.821,0,3.758-0.735,4.926-1.382
	c1.166-0.649,3.325-2.289,3.974-2.939C81.694,18.616,83.077,16.456,83.077,16.456z"/>
<path fill="#FFFFFF" d="M70.463,6.477l-0.995,1.814l-0.346-0.432l-1.124,1.857c0,0,0.909,0.691,1.038,0.777
	c0.129,0.086,0.776,1.167,0.776,1.167l-0.518,0.691l-1.209,0.043l0.172,1.771l2.117,0.042l-0.043,5.443l1.728,0.044l0.044-5.702
	l0.647-0.087l0.217,0.475l1.21-0.388l0.042,3.455h-0.217l-0.388-2.852l-1.253,0.304l0.26,2.981h0.864l-0.044,1.856l3.889-0.951
	l0.042-1.943l-1.165,0.217l-0.044-3.932l1.037-0.042l0.172,2.938c0,0,0.521,2.463,0.865,2.938c0.346,0.475,1.122,0.862,1.122,0.862
	s0.778,0.088,1.124-0.517c0.345-0.604,0.778-1.687,0.778-1.687l-0.95-2.116c0,0-0.261,1.081-0.563,1.296
	c-0.303,0.216-0.433-1.339-0.433-1.339l-0.215-2.333l1.856,0.043l0.043-1.944l-1.943-0.043V9.068l1.9-0.346l-0.777-2.116
	l-2.938,0.476L74.22,7.254l-0.042,5.616l-0.735-1.857l-1.254,0.561l0.217,0.735h-0.95l2.548-3.671l-1.77-0.735l-1.166,2.031
	L70.722,9.5l1.425-2.419L70.463,6.477z"/>
<polygon fill="#FFFFFF" points="68.561,14.814 68.474,16.628 68.128,18.053 69.641,19.047 69.987,17.146 70.03,14.727 "/>
<polygon fill="#FFFFFF" points="76.25,9.198 76.25,11.185 77.158,11.099 77.115,9.241 "/>
</svg>
