<?xml version="1.0" encoding="utf-8"?>
<!-- Generator: Adobe Illustrator 13.0.3, SVG Export Plug-In . SVG Version: 6.00 Build 14948)  -->
<!DOCTYPE svg PUBLIC "-//W3C//DTD SVG 1.1//EN" "http://www.w3.org/Graphics/SVG/1.1/DTD/svg11.dtd">
<svg version="1.1" id="レイヤー_1" xmlns="http://www.w3.org/2000/svg" xmlns:xlink="http://www.w3.org/1999/xlink" x="0px"
	 y="0px" width="87.698px" height="26.587px" viewBox="18.474 -1.989 87.698 26.587"
	 enable-background="new 18.474 -1.989 87.698 26.587" xml:space="preserve">
<g>
	<path fill="#FFFFFF" d="M21.515,14.125c-0.06,0.18-0.22,0.24-0.44,0.22c-0.22,1.681-0.66,3.601-1.24,4.781
		c-0.36-0.22-0.96-0.5-1.36-0.66c0.54-1.12,0.9-3.021,1.121-4.781L21.515,14.125z M25.676,13.284c-0.08-0.3-0.2-0.64-0.36-1.02
		l-1.721,0.1v8.382h-1.68v-8.281c-1.02,0.04-1.94,0.1-2.681,0.119c-0.04,0.181-0.2,0.261-0.34,0.28l-0.4-1.96l1.5-0.021
		c0.38-0.439,0.76-0.96,1.14-1.5c-0.6-0.88-1.64-2-2.521-2.82l0.92-1.28l0.52,0.46c0.64-1.16,1.34-2.621,1.74-3.741l1.94,0.801
		c-0.06,0.14-0.24,0.199-0.48,0.199c-0.52,1.121-1.4,2.681-2.121,3.802c0.38,0.399,0.72,0.8,0.98,1.16
		c0.82-1.24,1.58-2.541,2.12-3.621l1.88,0.86c-0.08,0.12-0.26,0.2-0.5,0.2c-0.98,1.62-2.5,3.78-3.881,5.461l2.921-0.061
		c-0.3-0.6-0.66-1.2-1-1.74l1.38-0.62c0.9,1.301,1.82,3.001,2.141,4.121L25.676,13.284z M25.556,13.625
		c0.52,1.14,1.061,2.66,1.26,3.641c-0.42,0.14-0.84,0.3-1.52,0.52c-0.18-0.979-0.7-2.54-1.181-3.7L25.556,13.625z M37.418,11.424
		h-3.461c0.28,3.921,0.88,7.282,1.88,7.282c0.28,0,0.46-1.24,0.58-2.801c0.36,0.36,0.98,0.86,1.38,1.101
		c-0.28,2.601-1.04,3.721-2,3.721c-0.26,0-0.56-0.08-0.84-0.261c-1.721-0.68-2.421-4.24-2.721-9.042h-2.921v6.481l3.341-0.66
		l0.18,1.601c-2.101,0.5-4.301,1.021-5.741,1.32c-0.02,0.18-0.14,0.28-0.28,0.34l-0.8-1.98c0.44-0.08,0.96-0.16,1.5-0.26V3.843
		l1.1,0.36c2.461-0.581,5.082-1.4,6.662-2.221l1.66,1.5c-0.08,0.08-0.18,0.08-0.46,0.08c-0.64,0.28-1.4,0.54-2.24,0.82
		c-0.04,0.16-0.2,0.26-0.48,0.3c0,1.681,0.04,3.361,0.12,4.941h3.541V11.424z M29.316,9.624h2.801c-0.06-1.461-0.1-3.001-0.14-4.602
		c-0.88,0.24-1.78,0.461-2.661,0.641V9.624z"/>
	<path fill="#FFFFFF" d="M48.456,14.965c-0.02,0.26-0.06,0.521-0.12,0.78c1.18,0.82,2.64,1.881,3.42,2.58l-1.2,1.281
		c-0.62-0.601-1.74-1.501-2.8-2.281c-0.62,1.141-1.74,2.241-3.701,3.121c-0.18-0.42-0.68-1.101-1.021-1.421
		c2.621-1.14,3.441-2.64,3.681-4.061h-3.36v-1.641h3.44v-1.68l2.181,0.14c-0.02,0.16-0.16,0.26-0.46,0.32v1.22h3.501v1.641H48.456z
		 M46.855,11.284V8.724c-0.8,1.08-1.76,2.061-2.681,2.66c-0.26-0.38-0.78-0.939-1.12-1.24c1.18-0.62,2.42-1.78,3.241-3h-2.92V5.643
		h3.48V2.002l2.101,0.141c-0.02,0.16-0.14,0.26-0.44,0.3v3.2h3.44v1.501h-3.44v0.16c0.82,0.439,3.061,1.84,3.62,2.22l-1.02,1.36
		c-0.521-0.5-1.661-1.38-2.601-2.08v2.48H46.855z M45.035,2.563c0.5,0.72,0.98,1.681,1.12,2.32l-1.38,0.561
		c-0.14-0.66-0.58-1.641-1.04-2.381L45.035,2.563z M49.196,4.942c0.36-0.68,0.82-1.74,1.08-2.46l1.781,0.62
		c-0.061,0.12-0.2,0.2-0.44,0.2c-0.3,0.6-0.8,1.521-1.221,2.12L49.196,4.942z M56.277,17.985c-0.061,0.08-0.181,0.141-0.36,0.16
		c-0.8,0.9-2.501,2.001-3.961,2.641c-0.28-0.38-0.84-0.92-1.24-1.26c1.44-0.58,3.081-1.621,3.861-2.501L56.277,17.985z
		 M52.796,6.223h2.581c0.14-0.54,0.3-1.14,0.42-1.7h-3.661v-1.64h9.742v1.64h-4.141c-0.16,0.521-0.36,1.12-0.58,1.7h4.021v10.603
		h-8.382V6.223z M59.378,9.324V7.684h-4.861v1.641H59.378z M59.378,12.345v-1.661h-4.861v1.661H59.378z M59.378,15.385v-1.68h-4.861
		v1.68H59.378z M60.798,20.767c-0.68-0.761-2.16-1.921-3.32-2.701l1.36-0.94c1.14,0.74,2.66,1.841,3.421,2.601L60.798,20.767z"/>
</g>
<g>
	<g>
		<path fill="#FFFFFF" d="M89.022,3.58c1.425-0.821,3.602-2.176,5.962-2.462c1.426-0.172,3.326,0.259,3.326,0.259
			c1.166,0.26,3.046,1.793,3.046,1.793l-1.923,1.922h5.746v-5.746l-1.771,1.771l-2.289-1.728c-0.216-0.216-2.766-1.037-2.766-1.037
			s-2.332-0.475-3.846-0.129c-1.512,0.345-3.628,0.604-6.521,2.549c-2.895,1.944-5.184,5.27-5.184,5.27l2.072,2.074
			C84.875,8.116,87.597,4.4,89.022,3.58z M84.594,8.396l-2.052-2.052l-0.56,1.253l2.029,2.29L84.594,8.396z M83.708,10.579
			l-2.159-2.204L81.16,9.368l2.16,2.376L83.708,10.579z M83.191,12.869l-2.377-2.464l-0.13,1.123l2.507,2.462V12.869z M83.298,15.74
			l-2.915-2.916v1.037l3.024,2.765L83.298,15.74z M102.933,5.999l0.259,0.994l2.895,3.024V9.239L102.933,5.999z M103.191,9.93
			l2.377,2.463l0.13-1.081l-2.507-2.462V9.93z M102.673,12.306l2.118,2.118l0.346-1.125l-2.159-2.375L102.673,12.306z M101.701,14.1
			l2.184,2.181l0.56-1.209l-1.986-2.202L101.701,14.1z M99.521,17.359c-0.648,0.65-2.808,2.29-3.974,2.939
			c-1.168,0.646-4.104,1.382-4.926,1.382c-0.82,0-2.463-0.217-3.456-0.692c-0.992-0.475-1.987-1.468-1.987-1.468l1.814-1.901h-5.639
			v5.727l1.75-1.753c1.6,1.601,3.544,2.205,4.926,2.636c1.383,0.434,3.758,0.303,5.228,0.045c1.468-0.259,5.088-2.193,6.349-3.068
			c1.124-0.776,3.977-4.45,3.977-4.45l-2.031-2.202C101.551,14.553,100.168,16.713,99.521,17.359z M95.848,14.121
			c0,0,0.521,2.463,0.865,2.938c0.346,0.475,1.122,0.862,1.122,0.862s0.778,0.088,1.124-0.517c0.345-0.604,0.778-1.687,0.778-1.687
			l-0.95-2.116c0,0-0.261,1.081-0.563,1.296c-0.303,0.216-0.433-1.339-0.433-1.339l-0.215-2.333l1.856,0.043l0.043-1.944
			l-1.943-0.043V7.166l1.9-0.346l-0.777-2.116l-2.938,0.476l-3.023,0.172l-0.042,5.616L91.917,9.11L90.663,9.67l0.217,0.735h-0.95
			l2.548-3.671l-1.77-0.735L89.542,8.03l-0.346-0.432l1.425-2.419l-1.684-0.604l-0.995,1.814l-0.346-0.432l-1.124,1.857
			c0,0,0.909,0.691,1.038,0.777c0.129,0.086,0.776,1.167,0.776,1.167l-0.518,0.691l-1.209,0.043l0.172,1.771l2.117,0.042
			l-0.043,5.443l1.728,0.044l0.044-5.702l0.647-0.087l0.217,0.475l1.21-0.388l0.042,3.455h-0.217l-0.388-2.852l-1.253,0.304
			l0.26,2.981h0.864l-0.044,1.856l3.889-0.951l0.042-1.943l-1.165,0.217l-0.044-3.932l1.037-0.042L95.848,14.121z M94.725,9.282
			V7.295l0.864,0.043l0.043,1.857L94.725,9.282z M86.603,16.15l1.513,0.994l0.346-1.901l0.043-2.419l-1.469,0.087l-0.087,1.814
			L86.603,16.15z"/>
	</g>
</g>
</svg>
