<?xml version="1.0" encoding="utf-8"?>
<!-- Generator: Adobe Illustrator 13.0.3, SVG Export Plug-In  -->
<!DOCTYPE svg PUBLIC "-//W3C//DTD SVG 1.1//EN" "http://www.w3.org/Graphics/SVG/1.1/DTD/svg11.dtd" [
	<!ENTITY ns_flows "http://ns.adobe.com/Flows/1.0/">
]>
<svg version="1.1"
	 xmlns="http://www.w3.org/2000/svg" xmlns:xlink="http://www.w3.org/1999/xlink" xmlns:a="http://ns.adobe.com/AdobeSVGViewerExtensions/3.0/"
	 x="0px" y="0px" width="120px" height="23px" viewBox="-9.755 -2.133 120 23" enable-background="new -9.755 -2.133 120 23"
	 xml:space="preserve">
<defs>
</defs>
<path fill="#FFFFFF" d="M13.088,8.64c-1.36-1.563-2.652-3.468-3.604-5.286l2.006-0.799c1.088,2.176,3.229,4.657,5.1,6.103
	c-0.544,0.425-1.343,1.258-1.734,1.835c-0.357-0.34-0.731-0.714-1.105-1.104c-0.187,5.32-0.391,7.344-0.986,8.058
	c-0.544,0.68-1.122,0.884-3.009,0.884c-0.374,0-0.765,0-1.156-0.018c-0.034-0.611-0.306-1.479-0.663-2.057
	c0.935,0.068,1.836,0.085,2.261,0.085c0.306,0,0.51-0.034,0.697-0.237c0.34-0.374,0.527-1.904,0.68-5.491H8.142
	c-0.476,3.094-1.377,6.153-5.95,7.904c-0.255-0.578-0.85-1.411-1.326-1.869c3.858-1.275,4.76-3.536,5.1-6.035H3.06V9.337
	c-0.476,0.459-0.952,0.884-1.445,1.258C1.241,10.17,0.476,9.422,0,9.048c2.04-1.394,3.96-3.893,4.997-6.459l2.499,0.85
	C7.411,3.625,7.19,3.659,6.986,3.625C6.17,5.427,5.031,7.178,3.722,8.623h8.415l0.476-0.018L13.088,8.64z"/>
<path fill="#FFFFFF" d="M23.867,10.68l0.408-0.017l1.054,0.085l-0.051,0.561c-0.153,4.165-0.34,5.779-0.799,6.357
	c-0.493,0.612-1.02,0.714-2.499,0.714c-0.272,0-0.561,0-0.85-0.017c-0.051-0.544-0.255-1.292-0.544-1.769
	c0.748,0.068,1.054,0.068,1.802,0.068c0.204,0,0.323-0.034,0.459-0.188c0.255-0.288,0.408-1.376,0.527-4.028h-1.938
	c-0.408,2.125-1.173,4.335-2.873,5.916c-0.289-0.477-0.884-1.105-1.376-1.445c2.192-1.921,2.549-5.167,2.72-7.802h-1.734V3.149
	h7.054v5.967h-3.349c-0.051,0.492-0.102,1.02-0.17,1.563H23.867z M20.025,4.968v2.346h3.23V4.968H20.025z M28.95,4.577
	c-0.017,0.17-0.153,0.272-0.442,0.323v9.196h-1.989V4.441L28.95,4.577z M30.547,2.707l2.481,0.119
	c-0.017,0.17-0.118,0.289-0.459,0.323v12.766c0,2.091-0.662,2.499-4.351,2.499c-0.085-0.595-0.408-1.53-0.714-2.108
	c1.122,0.034,2.227,0.034,2.583,0.034c0.323,0,0.459-0.102,0.459-0.425V2.707z"/>
<path fill="#FFFFFF" d="M42.141,2.248v1.445L39.183,5.07v10.606l2.958,1.36v1.462l-4.25-1.989V4.221L42.141,2.248z"/>
<path fill="#FFFFFF" d="M48.517,12.142c-0.051-0.238-0.136-0.51-0.238-0.799l-1.104,0.067v6.986h-1.802V12.89
	c-0.051,0.102-0.17,0.17-0.374,0.152c-0.17,1.395-0.493,3.026-0.986,4.063c-0.356-0.237-1.02-0.526-1.428-0.714
	c0.425-0.935,0.697-2.55,0.833-3.994l1.955,0.459v-1.326c-0.765,0.051-1.462,0.085-2.022,0.103c-0.052,0.17-0.188,0.237-0.307,0.255
	l-0.407-2.04h1.291c0.272-0.34,0.544-0.697,0.816-1.071c-0.51-0.747-1.326-1.665-2.057-2.328l0.969-1.395l0.374,0.323
	c0.51-0.952,1.02-2.107,1.309-3.009l2.04,0.833c-0.068,0.119-0.238,0.188-0.459,0.17c-0.442,0.952-1.156,2.21-1.751,3.145
	c0.238,0.256,0.442,0.493,0.612,0.731c0.611-0.986,1.189-1.989,1.614-2.855l1.955,0.884c-0.085,0.119-0.255,0.187-0.493,0.187
	c-0.781,1.292-1.972,2.992-3.094,4.352l1.87-0.017c-0.204-0.459-0.442-0.901-0.68-1.309l1.479-0.663
	c0.714,1.139,1.428,2.601,1.666,3.586L48.517,12.142z M48.823,12.346c0.426,0.935,0.833,2.176,1.021,2.991
	c-0.493,0.17-0.986,0.34-1.598,0.562c-0.153-0.816-0.578-2.091-0.952-3.06L48.823,12.346z M58.801,10.663h-2.703
	c0.17,2.89,0.595,5.507,1.207,5.507c0.17,0,0.306-1.02,0.374-2.176c0.374,0.392,1.037,0.952,1.445,1.224
	c-0.222,2.228-0.986,3.162-1.854,3.162c-0.306,0-0.629-0.102-0.951-0.323c-1.326-0.68-1.854-3.553-2.091-7.394h-2.058v4.912
	c0.766-0.153,1.564-0.323,2.363-0.493l0.204,1.734c-1.683,0.425-3.451,0.85-4.606,1.121c-0.018,0.153-0.137,0.255-0.272,0.307
	l-0.815-2.074l1.207-0.221V3.897l1.088,0.356c2.005-0.492,4.113-1.224,5.439-1.903l1.717,1.598
	c-0.085,0.085-0.256,0.085-0.459,0.085c-0.477,0.204-1.021,0.408-1.615,0.612c-0.068,0.136-0.204,0.255-0.459,0.289
	c0,1.274,0.017,2.566,0.051,3.79h2.788V10.663z M52.171,8.725h1.955c-0.051-1.07-0.067-2.21-0.102-3.365
	c-0.612,0.17-1.241,0.306-1.854,0.441V8.725z"/>
<path fill="#FFFFFF" d="M59.415,2.248l4.25,1.973V16.51l-4.25,1.989v-1.462l2.958-1.36V5.07l-2.958-1.377V2.248z"/>
<path fill="#FFFFFF" d="M76.735,5.517c0,0,1.59-2.31,3.6-3.66s3.479-1.53,4.529-1.77c1.051-0.24,2.67,0.09,2.67,0.09
	s1.771,0.57,1.921,0.72l1.59,1.2l1.229-1.23v3.99h-3.99l1.336-1.335c0,0-1.306-1.065-2.115-1.245c0,0-1.32-0.3-2.311-0.18
	c-1.639,0.199-3.15,1.14-4.14,1.71c-0.99,0.57-2.88,3.15-2.88,3.15L76.735,5.517z"/>
<polygon fill="#FFFFFF" points="76.165,6.597 76.554,5.728 77.979,7.152 77.575,8.188 "/>
<polygon fill="#FFFFFF" points="75.864,7.137 77.364,8.667 77.094,9.478 75.594,7.827 "/>
<polygon fill="#FFFFFF" points="75.354,8.547 77.004,10.258 77.004,11.037 75.264,9.327 "/>
<polygon fill="#FFFFFF" points="75.054,10.228 77.079,12.252 77.155,12.867 75.054,10.947 "/>
<polygon fill="#FFFFFF" points="90.714,5.487 92.904,7.737 92.904,8.277 90.894,6.177 "/>
<polygon fill="#FFFFFF" points="90.894,7.467 92.634,9.177 92.544,9.928 90.894,8.217 "/>
<polygon fill="#FFFFFF" points="90.745,8.907 92.245,10.557 92.004,11.338 90.534,9.867 "/>
<polygon fill="#FFFFFF" points="90.384,10.258 91.764,11.787 91.375,12.627 89.859,11.112 "/>
<path fill="#FFFFFF" d="M89.754,11.428l1.41,1.529c0,0-1.98,2.551-2.761,3.09c-0.876,0.607-3.39,1.951-4.409,2.131
	c-1.021,0.18-2.67,0.27-3.631-0.031c-0.959-0.299-2.31-0.719-3.42-1.83l-1.215,1.217v-3.977h3.915l-1.26,1.32
	c0,0,0.69,0.689,1.38,1.02s1.83,0.48,2.4,0.48s2.609-0.51,3.42-0.959c0.81-0.451,2.31-1.59,2.76-2.041
	C88.794,12.928,89.754,11.428,89.754,11.428z"/>
<path fill="#FFFFFF" d="M80.995,4.498l-0.69,1.26l-0.24-0.3l-0.78,1.29c0,0,0.631,0.48,0.721,0.54c0.09,0.06,0.539,0.81,0.539,0.81
	l-0.359,0.48l-0.84,0.03l0.12,1.23l1.47,0.03l-0.029,3.779l1.199,0.031l0.03-3.96l0.45-0.06l0.15,0.33l0.84-0.27l0.029,2.4h-0.15
	l-0.27-1.98l-0.87,0.211l0.181,2.07h0.6l-0.03,1.289l2.7-0.66l0.029-1.35l-0.809,0.15l-0.031-2.73l0.721-0.03l0.119,2.04
	c0,0,0.361,1.711,0.601,2.041c0.24,0.33,0.78,0.6,0.78,0.6s0.54,0.061,0.78-0.359c0.239-0.42,0.54-1.171,0.54-1.171l-0.66-1.47
	c0,0-0.181,0.75-0.391,0.9c-0.21,0.149-0.3-0.931-0.3-0.931l-0.149-1.62l1.289,0.03l0.03-1.35l-1.35-0.03v-1.47l1.319-0.24
	l-0.539-1.47l-2.041,0.33l-2.1,0.12l-0.029,3.9l-0.511-1.29l-0.87,0.39l0.15,0.51h-0.66l1.77-2.55l-1.229-0.51l-0.81,1.41l-0.24-0.3
	l0.99-1.68L80.995,4.498z"/>
<polygon fill="#FFFFFF" points="79.674,10.287 79.614,11.547 79.374,12.537 80.424,13.227 80.665,11.907 80.694,10.228 "/>
<polygon fill="#FFFFFF" points="85.014,6.387 85.014,7.767 85.644,7.708 85.614,6.417 "/>
</svg>
