<?xml version="1.0" encoding="utf-8"?>
<!-- Generator: Adobe Illustrator 13.0.3, SVG Export Plug-In . SVG Version: 6.00 Build 14948)  -->
<!DOCTYPE svg PUBLIC "-//W3C//DTD SVG 1.1//EN" "http://www.w3.org/Graphics/SVG/1.1/DTD/svg11.dtd">
<svg version="1.1" id="レイヤー_1" xmlns="http://www.w3.org/2000/svg" xmlns:xlink="http://www.w3.org/1999/xlink" x="0px"
	 y="0px" width="120px" height="23px" viewBox="0 0 120 23" enable-background="new 0 0 120 23" xml:space="preserve">
<g>
	<path fill="#FFFFFF" d="M5.192,9.853c0,1.326-0.034,2.651-0.221,3.943c0.476,0.595,1.7,2.362,1.989,2.805l-0.782,0.799
		c-0.289-0.544-0.901-1.547-1.428-2.346c-0.357,1.683-1.037,3.265-2.227,4.675c-0.17-0.238-0.527-0.596-0.765-0.748
		c2.176-2.617,2.414-5.916,2.414-9.128v-5.95l1.36,0.085C5.516,4.09,5.414,4.175,5.192,4.209V9.853z M1.776,11.569
		c0.646-0.918,0.935-2.601,0.969-4.148l0.799,0.119c-0.034,1.632-0.289,3.451-1.037,4.504L1.776,11.569z M7.572,6.962
		c-0.034,0.102-0.153,0.153-0.34,0.153C6.926,8.119,6.349,9.648,5.89,10.583l-0.663-0.306c0.425-0.986,0.952-2.618,1.224-3.74
		L7.572,6.962z M9.204,15.887c-0.408,1.395-1.037,2.906-2.159,3.824l-0.85-0.578c1.054-0.814,1.751-2.243,2.108-3.553L9.204,15.887z
		 M17.567,8.611H15.17c0.408,2.482,1.241,4.793,2.618,5.848c-0.238,0.204-0.595,0.578-0.748,0.85
		c-1.088-0.935-1.819-2.533-2.295-4.402c-0.408,1.581-1.275,3.094-3.077,4.369c-0.153-0.222-0.476-0.578-0.714-0.731
		c2.396-1.7,2.992-3.842,3.111-5.933h-1.921V8.476c-0.799,3.297-2.295,5.575-4.233,6.833c-0.136-0.255-0.408-0.595-0.646-0.799
		c0.969-0.578,1.835-1.496,2.55-2.703c-0.425-0.425-1.122-0.952-1.717-1.309l0.51-0.612c0.544,0.306,1.19,0.765,1.615,1.139
		c0.221-0.459,0.425-0.935,0.595-1.445C10.377,9.224,9.68,8.798,9.102,8.509l0.425-0.697c0.527,0.238,1.122,0.561,1.563,0.884
		c0.17-0.629,0.323-1.292,0.425-1.989H9.561C9.017,8.356,8.27,9.853,7.385,10.906c-0.17-0.187-0.527-0.476-0.748-0.629
		c1.224-1.394,2.159-3.859,2.668-6.408l1.258,0.289c-0.034,0.136-0.153,0.204-0.357,0.204C10.105,4.838,9.986,5.314,9.85,5.773h2.04
		l0.187-0.034l0.595,0.187c-0.017,0.102-0.068,0.153-0.102,0.204c-0.068,0.51-0.153,1.02-0.238,1.496H14.1V3.92l1.309,0.085
		c-0.017,0.119-0.102,0.204-0.323,0.221v3.399h2.482V8.611z M10.547,19.457c0.017-0.885-0.153-2.262-0.391-3.332l0.935-0.137
		c0.289,1.055,0.459,2.432,0.459,3.314L10.547,19.457z M13.59,19.49c-0.136-0.918-0.612-2.295-1.122-3.349l0.901-0.272
		c0.544,1.037,1.037,2.432,1.207,3.332L13.59,19.49z M16.836,19.729c-0.34-1.004-1.207-2.617-2.023-3.808l0.901-0.356
		c0.85,1.172,1.734,2.754,2.091,3.756L16.836,19.729z M16.31,4.311c0.51,0.799,1.02,1.836,1.224,2.516l-0.833,0.357
		c-0.187-0.714-0.68-1.768-1.156-2.567L16.31,4.311z"/>
	<path fill="#FFFFFF" d="M29.927,7.438c0.187-0.017,0.34-0.034,0.51-0.034c1.853,0,3.688,1.104,3.688,3.399
		c0,2.209-1.513,3.502-3.842,3.502c-1.003,0-2.329-0.375-3.399-1.225c0.119-0.255,0.255-0.697,0.34-1.02
		c0.986,0.765,2.159,1.121,3.06,1.121c1.598,0,2.601-0.867,2.601-2.396c0-1.258-0.867-2.244-2.669-2.244
		c-1.428,0-3.672,0.731-5.592,1.411c0.799,2.703,1.887,6.579,2.55,9.127l-1.309,0.289c-0.527-2.447-1.649-6.493-2.38-8.992
		c-1.088,0.391-2.618,0.901-3.536,1.241c-0.017,0.153-0.136,0.306-0.289,0.374l-0.544-1.36c1.088-0.34,2.805-0.901,4.046-1.343
		c-0.51-1.734-0.986-3.264-1.292-4.25l1.751-0.323c0.017,0.221-0.068,0.306-0.357,0.459c0.374,1.309,0.68,2.414,1.054,3.706
		c1.836-0.629,3.57-1.19,4.896-1.377c-0.765-0.867-2.108-2.022-3.042-2.583l0.782-0.765c1.139,0.646,2.652,1.921,3.451,2.89
		L29.927,7.438z"/>
	<path fill="#FFFFFF" d="M47.845,4.515c0,0.17-0.119,0.255-0.374,0.323c0.068,1.19,0.119,2.583,0.153,3.858
		c1.343-0.221,2.635-0.425,3.638-0.578l0.102,1.19c-1.02,0.102-2.346,0.289-3.723,0.51c0.018,1.564-0.017,2.941-0.187,3.773
		c-0.204,1.003-0.936,1.581-1.904,1.581c-0.696,0-1.683-0.237-2.617-0.748c0.085-0.255,0.152-0.68,0.203-1.003
		c0.952,0.51,1.819,0.663,2.228,0.663c1.02,0,1.173-1.003,1.088-4.097c-1.955,0.323-3.995,0.663-5.542,0.935
		c0.034,1.615,0.068,3.162,0.137,4.114c0.203,2.584,1.479,2.736,3.926,2.736c1.395,0,3.23-0.085,4.454-0.255l0.034,1.155
		c-1.207,0.137-2.924,0.188-4.352,0.188c-2.635,0-4.947-0.068-5.236-3.723c-0.085-0.951-0.119-2.431-0.153-4.011
		c-1.054,0.187-2.448,0.459-3.315,0.629l-0.187-1.139c0.901-0.136,2.312-0.391,3.485-0.578c-0.017-1.479-0.034-3.077-0.034-4.369
		l1.683,0.153c-0.018,0.187-0.153,0.289-0.425,0.323c-0.018,1.037-0.018,2.396,0,3.671L46.434,8.9
		c-0.051-1.445-0.119-3.094-0.221-4.471L47.845,4.515z"/>
	<path fill="#FFFFFF" d="M59.439,4.396c-0.051,0.136-0.221,0.272-0.527,0.289c-0.119,0.748-0.271,1.632-0.425,2.294
		c1.666-0.102,3.519-0.391,4.998-0.833l0.187,1.156c-1.581,0.391-3.45,0.663-5.405,0.816c-0.816,3.264-1.938,5.915-3.604,8.364
		l-1.14-0.459c1.547-2.228,2.72-4.777,3.451-7.871h-3.383V7.048h2.022c0.527,0,1.071-0.017,1.564-0.017
		c0.204-0.901,0.356-1.87,0.476-2.873L59.439,4.396z M63.961,11.637c0.017,1.376,0.119,2.312,0.221,3.484
		c1.088,0.426,2.499,1.156,3.621,1.973l-0.612,1.088c-0.935-0.714-2.091-1.377-3.009-1.785c0,1.699-0.68,3.025-3.179,3.025
		c-1.887,0-3.331-0.85-3.314-2.447c0-1.699,1.785-2.516,3.349-2.516c0.612,0,1.241,0.119,1.921,0.306
		c-0.068-1.088-0.153-2.192-0.153-2.992L63.961,11.637z M63.026,15.887c-0.697-0.271-1.411-0.391-2.023-0.391
		c-1.02,0-2.227,0.408-2.243,1.461c0,0.969,0.951,1.428,2.277,1.428c1.224,0,2.006-0.594,2.006-1.717
		C63.043,16.396,63.043,16.142,63.026,15.887z M67.684,9.886c-1.921,0.017-4.25,0.323-6.018,0.833l-0.187-1.071
		c1.938-0.561,4.283-0.918,6.136-0.918L67.684,9.886z"/>
	<path fill="#FFFFFF" d="M72.751,6.198c-0.034,0.153-0.222,0.255-0.459,0.272c-0.204,1.275-0.323,2.805-0.323,4.232
		c0,0.629,0.034,1.241,0.068,1.785c0.204,2.89,1.377,4.64,2.686,4.624c0.68,0,1.563-1.734,2.176-3.639
		c0.237,0.238,0.696,0.561,0.985,0.731c-0.781,2.294-1.768,4.165-3.179,4.198c-2.158,0.033-3.654-2.584-3.893-5.848
		c-0.051-0.646-0.067-1.359-0.067-2.125c0-1.496,0.085-3.127,0.255-4.572L72.751,6.198z M84.021,14.102
		c-0.476-2.974-1.988-5.116-4.283-6.391l0.748-0.918c2.481,1.326,4.3,3.774,4.793,6.918L84.021,14.102z"/>
	<path fill="#FFFFFF" d="M99.321,17.977c-1.496,0.273-3.484,0.393-5.219,0.393c-1.394,0-2.617-0.086-3.28-0.221
		c-2.058-0.46-2.941-1.752-2.941-3.248c0-1.274,0.714-2.6,1.734-3.62l0.985,0.51c-0.951,0.97-1.495,2.073-1.495,3.009
		c0,1.003,0.662,1.887,2.124,2.227c0.578,0.119,1.564,0.188,2.72,0.188c1.649,0,3.655-0.137,5.287-0.459L99.321,17.977z
		 M91.688,9.411c0.885-0.697,2.091-1.513,3.009-1.972V7.421c-1.292,0.153-4.249,0.204-6.136,0.204c0-0.323,0-0.884-0.018-1.19h0.918
		c2.176,0,6.63-0.034,8.771-0.544l0.136,1.241c-0.561,0.085-0.969,0.17-1.785,0.51c-0.951,0.391-2.601,1.309-3.926,2.38
		L91.688,9.411z M99.304,11.824c-0.492-0.748-1.547-1.768-2.277-2.312l0.561-0.527c0.816,0.595,1.802,1.581,2.329,2.295
		L99.304,11.824z M101.089,10.209c-0.476-0.68-1.479-1.7-2.277-2.295l0.561-0.544c0.833,0.629,1.818,1.598,2.329,2.312
		L101.089,10.209z"/>
	<path fill="#FFFFFF" d="M116.984,8.815c-0.052,0.187-0.238,0.306-0.493,0.306c-0.188,1.173-0.459,2.414-0.748,3.467
		c0.918,0.392,1.887,0.833,2.855,1.326l-0.544,1.139c-0.918-0.459-1.802-0.901-2.669-1.274c-0.815,2.447-1.988,4.232-3.79,5.422
		c-0.238-0.238-0.663-0.527-0.969-0.713c1.784-1.174,2.89-2.771,3.671-5.202c-1.717-0.681-3.28-1.155-4.538-1.258
		c-1.173,4.283-2.227,5.405-4.267,5.405s-2.431-1.632-2.431-2.669c0-2.634,2.736-3.858,5.779-3.875
		c0.357-1.36,0.68-3.025,0.918-4.793c-0.799,0.068-3.519,0.255-4.811,0.34c-0.068,0.119-0.204,0.204-0.357,0.238l-0.152-1.377
		c1.462-0.051,4.623-0.255,5.644-0.357c0.187-0.017,0.255-0.102,0.374-0.187l1.054,0.629c-0.085,0.136-0.221,0.204-0.425,0.272
		c-0.272,1.887-0.681,3.842-1.055,5.303c1.31,0.102,2.873,0.561,4.573,1.207c0.289-1.02,0.544-2.329,0.73-3.706L116.984,8.815z
		 M108.57,11.96c-2.448,0.034-4.403,1.003-4.403,2.805c0,0.952,0.459,1.599,1.258,1.599C106.666,16.363,107.482,15.938,108.57,11.96
		z"/>
</g>
</svg>
