<?xml version="1.0" encoding="utf-8"?>
<!-- Generator: Adobe Illustrator 13.0.3, SVG Export Plug-In . SVG Version: 6.00 Build 14948)  -->
<!DOCTYPE svg PUBLIC "-//W3C//DTD SVG 1.1//EN" "http://www.w3.org/Graphics/SVG/1.1/DTD/svg11.dtd">
<svg version="1.1" id="レイヤー_1" xmlns="http://www.w3.org/2000/svg" xmlns:xlink="http://www.w3.org/1999/xlink" x="0px"
	 y="0px" width="120px" height="23px" viewBox="0 0 120 23" enable-background="new 0 0 120 23" xml:space="preserve">
<g>
	<path fill="#FFFFFF" d="M5.141,10.618c0,1.56-0.04,3.121-0.26,4.641c0.56,0.7,2,2.78,2.34,3.301l-0.92,0.94
		c-0.34-0.641-1.06-1.82-1.68-2.761C4.201,18.72,3.4,20.58,2,22.24c-0.2-0.28-0.62-0.7-0.9-0.88
		c2.561-3.081,2.841-6.962,2.841-10.743V3.616l1.6,0.1c-0.02,0.12-0.14,0.22-0.4,0.26V10.618z M1.12,12.639
		c0.76-1.081,1.1-3.061,1.14-4.881l0.94,0.14c-0.04,1.92-0.34,4.061-1.22,5.301L1.12,12.639z M7.941,7.217
		c-0.04,0.12-0.18,0.18-0.4,0.18c-0.36,1.181-1.04,2.981-1.581,4.081l-0.78-0.36c0.5-1.161,1.12-3.081,1.44-4.401L7.941,7.217z
		 M9.862,17.719c-0.48,1.641-1.22,3.421-2.541,4.502l-1-0.681c1.24-0.96,2.061-2.641,2.48-4.181L9.862,17.719z M19.704,9.158h-2.821
		c0.48,2.92,1.46,5.641,3.081,6.881c-0.28,0.24-0.7,0.68-0.88,1c-1.28-1.1-2.141-2.98-2.701-5.181c-0.48,1.86-1.5,3.641-3.621,5.141
		c-0.18-0.26-0.56-0.68-0.84-0.86c2.821-2,3.521-4.521,3.661-6.981h-2.26v-0.16c-0.94,3.881-2.701,6.561-4.981,8.042
		c-0.16-0.3-0.48-0.7-0.76-0.939c1.14-0.681,2.161-1.761,3-3.182c-0.5-0.5-1.32-1.12-2.021-1.54l0.6-0.72
		c0.64,0.36,1.4,0.9,1.9,1.34c0.26-0.54,0.5-1.1,0.7-1.7c-0.52-0.42-1.34-0.92-2.02-1.26l0.5-0.82c0.62,0.28,1.32,0.66,1.84,1.041
		c0.2-0.74,0.38-1.521,0.5-2.341h-2.3c-0.64,1.94-1.521,3.701-2.561,4.941c-0.2-0.22-0.62-0.561-0.88-0.74
		c1.44-1.641,2.541-4.541,3.141-7.542l1.48,0.34c-0.04,0.16-0.18,0.24-0.42,0.24c-0.12,0.56-0.26,1.12-0.42,1.66h2.4l0.22-0.04
		l0.7,0.22c-0.02,0.12-0.08,0.18-0.12,0.24c-0.08,0.6-0.18,1.2-0.28,1.761h2.08V3.636l1.541,0.1c-0.02,0.14-0.12,0.24-0.38,0.26
		v4.001h2.92V9.158z M11.442,21.92c0.02-1.04-0.18-2.66-0.46-3.92l1.1-0.16c0.34,1.24,0.54,2.86,0.54,3.9L11.442,21.92z
		 M15.023,21.96c-0.16-1.08-0.72-2.7-1.32-3.94l1.061-0.32c0.64,1.221,1.22,2.86,1.42,3.921L15.023,21.96z M18.844,22.24
		c-0.4-1.18-1.42-3.08-2.38-4.48l1.06-0.42c1,1.38,2.041,3.24,2.461,4.421L18.844,22.24z M18.224,4.097c0.6,0.94,1.2,2.16,1.44,2.96
		l-0.98,0.42c-0.22-0.84-0.8-2.08-1.36-3.021L18.224,4.097z"/>
	<path fill="#FFFFFF" d="M34.243,7.777c0.22-0.02,0.4-0.04,0.6-0.04c2.18,0,4.341,1.3,4.341,4.001c0,2.601-1.78,4.121-4.521,4.121
		c-1.18,0-2.741-0.44-4.001-1.44c0.14-0.3,0.3-0.82,0.4-1.2c1.161,0.9,2.541,1.32,3.601,1.32c1.88,0,3.061-1.021,3.061-2.821
		c0-1.48-1.02-2.641-3.141-2.641c-1.68,0-4.321,0.86-6.582,1.66c0.94,3.18,2.221,7.742,3.001,10.743l-1.541,0.34
		c-0.62-2.881-1.94-7.642-2.801-10.583c-1.28,0.46-3.081,1.061-4.161,1.46c-0.02,0.181-0.16,0.36-0.34,0.44l-0.64-1.601
		c1.28-0.4,3.301-1.06,4.761-1.581c-0.6-2.04-1.16-3.841-1.521-5.001l2.061-0.38c0.02,0.26-0.08,0.36-0.42,0.54
		c0.44,1.541,0.8,2.841,1.24,4.361c2.16-0.74,4.201-1.4,5.761-1.62c-0.9-1.021-2.48-2.381-3.581-3.041l0.92-0.9
		c1.34,0.76,3.121,2.26,4.061,3.401L34.243,7.777z"/>
	<path fill="#FFFFFF" d="M55.324,4.336c0,0.2-0.14,0.3-0.44,0.38c0.08,1.4,0.141,3.041,0.181,4.541c1.58-0.26,3.101-0.5,4.28-0.68
		l0.12,1.4c-1.2,0.12-2.761,0.34-4.381,0.601c0.021,1.84-0.02,3.461-0.22,4.441c-0.24,1.18-1.101,1.859-2.24,1.859
		c-0.82,0-1.98-0.279-3.081-0.88c0.1-0.3,0.18-0.8,0.24-1.181c1.12,0.601,2.141,0.781,2.62,0.781c1.2,0,1.381-1.181,1.28-4.822
		c-2.3,0.38-4.701,0.78-6.521,1.1c0.04,1.9,0.08,3.722,0.16,4.841c0.24,3.041,1.74,3.221,4.621,3.221c1.641,0,3.801-0.1,5.241-0.3
		l0.04,1.36c-1.42,0.16-3.44,0.22-5.121,0.22c-3.101,0-5.821-0.08-6.161-4.38c-0.101-1.121-0.141-2.861-0.181-4.722
		c-1.24,0.22-2.88,0.54-3.9,0.74l-0.22-1.34c1.06-0.16,2.72-0.46,4.101-0.68c-0.021-1.74-0.04-3.621-0.04-5.141l1.98,0.18
		c-0.021,0.22-0.18,0.34-0.5,0.38c-0.021,1.22-0.021,2.821,0,4.321l6.481-1.081c-0.061-1.7-0.141-3.641-0.261-5.261L55.324,4.336z"
		/>
	<path fill="#FFFFFF" d="M66.621,12.398c1.32-0.68,3.381-1.161,4.961-1.161c3.182,0,5.182,1.861,5.182,4.801
		c0,3.621-3.18,5.621-7.201,5.621c-2.602,0-4.381-1.04-4.381-2.801c0-1.48,1.461-2.68,3.281-2.68c2.26,0,3.779,1.8,4.08,3.62
		c1.6-0.601,2.76-1.88,2.76-3.741c0-2.16-1.6-3.541-4.119-3.541c-3.002,0-5.941,1.341-7.262,2.621
		c-0.602,0.561-1.381,1.4-1.922,2.021l-1.02-1.021c1.801-1.88,7.521-7.341,10.242-9.882c-1.16,0.16-5.16,0.32-7.441,0.4
		c-0.061,0.14-0.26,0.26-0.42,0.3l-0.16-1.7c2.701-0.02,7.861-0.22,9.322-0.44l0.299-0.14l1.061,1.3c-0.1,0.08-0.279,0.16-0.48,0.18
		c-1.42,1.161-5.221,4.721-6.781,6.222V12.398z M69.383,20.4c0.6,0,1.299-0.08,1.82-0.2c-0.221-1.54-1.361-2.841-2.842-2.841
		c-1.039,0-1.959,0.561-1.959,1.48C66.402,20.061,68.063,20.4,69.383,20.4z"/>
	<path fill="#FFFFFF" d="M93.684,20.18c-1.76,0.32-4.102,0.46-6.141,0.46c-1.641,0-3.082-0.1-3.861-0.26
		c-2.42-0.54-3.461-2.061-3.461-3.821c0-1.5,0.84-3.061,2.041-4.26l1.16,0.6c-1.121,1.141-1.762,2.44-1.762,3.541
		c0,1.18,0.781,2.221,2.502,2.62c0.68,0.14,1.84,0.22,3.199,0.22c1.941,0,4.303-0.16,6.223-0.539L93.684,20.18z M84.701,10.098
		c1.041-0.82,2.461-1.78,3.541-2.32v-0.02c-1.52,0.18-5,0.24-7.221,0.24c0-0.38,0-1.041-0.021-1.4h1.082
		c2.561,0,7.801-0.04,10.322-0.64l0.158,1.46c-0.66,0.1-1.139,0.2-2.1,0.601c-1.121,0.46-3.061,1.54-4.621,2.8L84.701,10.098z
		 M93.664,12.938c-0.58-0.88-1.82-2.081-2.682-2.721l0.66-0.62c0.961,0.7,2.121,1.86,2.74,2.701L93.664,12.938z M95.764,11.038
		c-0.561-0.8-1.74-2-2.68-2.701l0.66-0.64c0.98,0.74,2.141,1.88,2.74,2.721L95.764,11.038z"/>
	<path fill="#FFFFFF" d="M114.463,9.397c-0.059,0.22-0.279,0.36-0.58,0.36c-0.219,1.38-0.539,2.84-0.879,4.08
		c1.08,0.461,2.221,0.98,3.359,1.561l-0.639,1.341c-1.08-0.54-2.121-1.06-3.141-1.501c-0.961,2.881-2.342,4.981-4.461,6.382
		c-0.281-0.28-0.781-0.62-1.141-0.84c2.1-1.38,3.4-3.261,4.32-6.122c-2.02-0.8-3.861-1.359-5.34-1.48
		c-1.381,5.042-2.621,6.362-5.021,6.362s-2.861-1.921-2.861-3.142c0-3.1,3.221-4.54,6.801-4.56c0.422-1.601,0.801-3.561,1.082-5.642
		c-0.941,0.08-4.143,0.3-5.662,0.4c-0.08,0.14-0.24,0.24-0.42,0.28l-0.18-1.62c1.721-0.06,5.441-0.3,6.641-0.42
		c0.221-0.02,0.301-0.12,0.439-0.22l1.24,0.74c-0.1,0.16-0.26,0.24-0.5,0.32c-0.318,2.221-0.799,4.521-1.24,6.241
		c1.541,0.12,3.381,0.66,5.383,1.42c0.34-1.199,0.639-2.74,0.859-4.36L114.463,9.397z M104.563,13.099
		c-2.881,0.04-5.182,1.181-5.182,3.3c0,1.121,0.539,1.881,1.48,1.881C102.32,18.279,103.281,17.779,104.563,13.099z"/>
</g>
</svg>
