<?xml version="1.0" encoding="utf-8"?>
<!-- Generator: Adobe Illustrator 13.0.3, SVG Export Plug-In . SVG Version: 6.00 Build 14948)  -->
<!DOCTYPE svg PUBLIC "-//W3C//DTD SVG 1.1//EN" "http://www.w3.org/Graphics/SVG/1.1/DTD/svg11.dtd">
<svg version="1.1" id="レイヤー_1" xmlns="http://www.w3.org/2000/svg" xmlns:xlink="http://www.w3.org/1999/xlink" x="0px"
	 y="0px" width="120px" height="23px" viewBox="0 0 120 23" enable-background="new 0 0 120 23" xml:space="preserve">
<g>
	<path fill="#FFFFFF" d="M39.583,18.191h9.242v1.453H28.934v-1.453h9.131v-5.896h-6.711v-1.43h6.711V5.782h-5.391
		c-0.77,1.584-1.672,3.014-2.641,4.07c-0.286-0.264-0.858-0.682-1.232-0.902c1.804-1.915,3.366-5.259,4.269-8.625l1.914,0.528
		c-0.066,0.154-0.22,0.242-0.506,0.242c-0.33,1.078-0.704,2.178-1.144,3.234h4.73v-4.401l1.98,0.11
		c-0.022,0.154-0.154,0.264-0.462,0.308V4.33h8.208v1.452h-8.208v5.083h7.393v1.43h-7.393V18.191z"/>
	<path fill="#FFFFFF" d="M66.754,18.148c-1.936,0.352-4.51,0.506-6.754,0.506c-1.805,0-3.389-0.11-4.247-0.286
		c-2.663-0.595-3.807-2.267-3.807-4.202c0-1.65,0.924-3.367,2.244-4.688l1.276,0.66c-1.232,1.254-1.937,2.685-1.937,3.895
		c0,1.299,0.858,2.442,2.75,2.883c0.748,0.154,2.024,0.242,3.521,0.242c2.134,0,4.73-0.176,6.843-0.594L66.754,18.148z
		 M56.875,7.058c1.144-0.902,2.706-1.958,3.895-2.552V4.484c-1.672,0.198-5.501,0.264-7.943,0.264c0-0.418,0-1.144-0.022-1.54h1.188
		c2.816,0,8.582-0.044,11.353-0.704l0.176,1.606c-0.726,0.11-1.254,0.22-2.31,0.66c-1.232,0.506-3.367,1.694-5.083,3.081
		L56.875,7.058z M66.732,10.183c-0.639-0.968-2.002-2.288-2.949-2.992l0.727-0.682c1.057,0.77,2.332,2.046,3.016,2.97L66.732,10.183
		z M69.043,8.092c-0.617-0.88-1.914-2.2-2.949-2.97l0.727-0.704c1.078,0.814,2.354,2.068,3.014,2.993L69.043,8.092z"/>
	<path fill="#FFFFFF" d="M89.611,6.288c-0.064,0.242-0.307,0.396-0.637,0.396c-0.242,1.519-0.596,3.125-0.969,4.489
		c1.188,0.506,2.441,1.078,3.697,1.716l-0.705,1.475c-1.188-0.594-2.332-1.166-3.455-1.65c-1.055,3.169-2.574,5.479-4.906,7.02
		c-0.309-0.309-0.857-0.682-1.254-0.924c2.311-1.519,3.74-3.587,4.752-6.733c-2.221-0.88-4.246-1.497-5.875-1.628
		c-1.518,5.545-2.881,6.997-5.521,6.997s-3.146-2.111-3.146-3.454c0-3.411,3.543-4.995,7.48-5.017
		c0.463-1.76,0.881-3.917,1.188-6.205c-1.033,0.088-4.555,0.33-6.227,0.44c-0.088,0.154-0.264,0.264-0.461,0.308l-0.199-1.782
		c1.893-0.066,5.986-0.33,7.305-0.462c0.242-0.022,0.33-0.132,0.484-0.242l1.365,0.814c-0.111,0.176-0.287,0.264-0.551,0.352
		c-0.352,2.442-0.879,4.973-1.363,6.865c1.693,0.132,3.719,0.726,5.918,1.563c0.375-1.32,0.705-3.015,0.947-4.797L89.611,6.288z
		 M78.721,10.359c-3.168,0.044-5.699,1.298-5.699,3.63c0,1.232,0.594,2.068,1.629,2.068C76.256,16.058,77.313,15.508,78.721,10.359z
		"/>
</g>
</svg>
