<?xml version="1.0" encoding="utf-8"?>
<!-- Generator: Adobe Illustrator 13.0.3, SVG Export Plug-In . SVG Version: 6.00 Build 14948)  -->
<!DOCTYPE svg PUBLIC "-//W3C//DTD SVG 1.1//EN" "http://www.w3.org/Graphics/SVG/1.1/DTD/svg11.dtd">
<svg version="1.1" id="レイヤー_1" xmlns="http://www.w3.org/2000/svg" xmlns:xlink="http://www.w3.org/1999/xlink" x="0px"
	 y="0px" width="120px" height="23px" viewBox="0 0 120 23" enable-background="new 0 0 120 23" xml:space="preserve">
<g>
	<path fill="#FFFFFF" d="M26.087,10.539c0.7,0.66,2.541,2.661,2.98,3.18l-0.84,1.101c-0.4-0.64-1.36-1.88-2.14-2.821v7.681h-1.28
		v-8.001c-0.78,2.04-1.821,4.101-2.841,5.341c-0.14-0.4-0.48-0.96-0.7-1.279c1.22-1.421,2.561-4.062,3.301-6.362h-3.041v-1.26h3.281
		V1.116l1.68,0.12c-0.02,0.14-0.14,0.22-0.4,0.26v6.621h2.98v1.26h-2.98V10.539z M22.646,2.557c0.62,1.36,1.1,3.141,1.2,4.281
		l-1.1,0.3c-0.08-1.16-0.54-2.96-1.121-4.321L22.646,2.557z M29.568,2.857c-0.04,0.12-0.18,0.2-0.42,0.2
		c-0.36,1.22-1.041,3.081-1.581,4.201c-0.22-0.08-0.74-0.28-0.94-0.34c0.52-1.18,1.14-3.161,1.46-4.521L29.568,2.857z M38.51,17.8
		h1.46v1.28H28.067V17.8h2.161V2.077h8.282V17.8z M37.169,3.357h-5.641v3.961h5.641V3.357z M37.169,12.52V8.558h-5.641v3.961H37.169
		z M31.528,13.76v4.04h5.641v-4.04H31.528z"/>
	<path fill="#FFFFFF" d="M59.61,8.378h-7.822c1.301,4.781,3.881,8.462,8.142,10.042c-0.34,0.301-0.779,0.859-1,1.26
		c-4.181-1.72-6.722-5.26-8.201-10.082c-0.921,3.96-3.101,7.882-8.262,10.103c-0.2-0.361-0.62-0.841-0.961-1.141
		c5.281-2.141,7.262-6.142,8.022-10.183h-7.722v-1.38h7.941c0.26-2.081,0.24-4.121,0.26-5.861l1.881,0.1
		c-0.021,0.18-0.181,0.28-0.44,0.34c-0.02,1.58-0.04,3.46-0.28,5.421h8.442V8.378z"/>
	<path fill="#FFFFFF" d="M76.05,17.68c-1.761,0.32-4.102,0.461-6.142,0.461c-1.641,0-3.081-0.101-3.861-0.261
		c-2.42-0.54-3.46-2.061-3.46-3.821c0-1.5,0.84-3.06,2.04-4.26l1.16,0.6c-1.12,1.14-1.761,2.44-1.761,3.541
		c0,1.18,0.78,2.221,2.501,2.62c0.68,0.14,1.841,0.22,3.2,0.22c1.94,0,4.302-0.16,6.222-0.539L76.05,17.68z M67.067,7.598
		c1.04-0.82,2.461-1.78,3.541-2.32v-0.02c-1.521,0.18-5.001,0.24-7.222,0.24c0-0.38,0-1.041-0.021-1.4h1.081
		c2.561,0,7.802-0.04,10.322-0.64l0.159,1.46c-0.66,0.1-1.14,0.2-2.1,0.6c-1.121,0.46-3.062,1.541-4.621,2.801L67.067,7.598z
		 M76.029,10.438c-0.58-0.88-1.82-2.081-2.681-2.721l0.66-0.62c0.96,0.7,2.12,1.86,2.741,2.701L76.029,10.438z M78.13,8.538
		c-0.561-0.8-1.74-2-2.681-2.701l0.66-0.64c0.98,0.74,2.141,1.88,2.74,2.721L78.13,8.538z"/>
	<path fill="#FFFFFF" d="M96.829,6.897c-0.06,0.22-0.279,0.36-0.58,0.36c-0.22,1.38-0.54,2.84-0.88,4.081
		c1.08,0.46,2.221,0.98,3.36,1.56l-0.64,1.341c-1.08-0.54-2.12-1.06-3.141-1.501c-0.96,2.881-2.341,4.981-4.461,6.382
		c-0.28-0.28-0.78-0.62-1.141-0.84c2.101-1.38,3.401-3.261,4.321-6.122c-2.021-0.8-3.861-1.36-5.341-1.48
		c-1.381,5.042-2.621,6.361-5.021,6.361s-2.86-1.92-2.86-3.141c0-3.1,3.221-4.541,6.801-4.56c0.421-1.601,0.801-3.561,1.081-5.642
		c-0.94,0.08-4.142,0.3-5.662,0.4c-0.079,0.14-0.239,0.24-0.42,0.28l-0.18-1.62c1.721-0.06,5.441-0.3,6.642-0.42
		c0.22-0.02,0.3-0.12,0.439-0.22l1.24,0.74c-0.1,0.16-0.26,0.24-0.5,0.32c-0.319,2.221-0.8,4.521-1.24,6.241
		c1.541,0.12,3.381,0.66,5.382,1.42c0.34-1.2,0.64-2.741,0.859-4.361L96.829,6.897z M86.928,10.599
		c-2.881,0.04-5.182,1.18-5.182,3.3c0,1.121,0.54,1.881,1.48,1.881C84.687,15.779,85.647,15.279,86.928,10.599z"/>
</g>
</svg>
