<?xml version="1.0" encoding="utf-8"?>
<!-- Generator: Adobe Illustrator 13.0.3, SVG Export Plug-In . SVG Version: 6.00 Build 14948)  -->
<!DOCTYPE svg PUBLIC "-//W3C//DTD SVG 1.1//EN" "http://www.w3.org/Graphics/SVG/1.1/DTD/svg11.dtd">
<svg version="1.1" id="レイヤー_1" xmlns="http://www.w3.org/2000/svg" xmlns:xlink="http://www.w3.org/1999/xlink" x="0px"
	 y="0px" width="595.275px" height="841.89px" viewBox="-238.5 -410 595.275 841.89"
	 enable-background="new -238.5 -410 595.275 841.89" xml:space="preserve">
<g>
	<path fill="#FFFFFF" d="M-1.021,14.518c-0.846,0.539-1.729,1.043-2.61,1.476c-0.162-0.287-0.468-0.738-0.703-0.99
		c3.115-1.438,6.23-3.905,7.67-6.031L5.119,9.08c-0.036,0.126-0.18,0.216-0.36,0.234c1.747,2.07,4.97,4.322,7.743,5.474
		c-0.271,0.287-0.576,0.737-0.774,1.08c-0.864-0.414-1.783-0.919-2.683-1.495v5.42H7.82v-0.559H0.168v0.647H-1.02L-1.021,14.518
		L-1.021,14.518z M-2.354,6.072v2.107h-1.17V4.956h6.86V3.119l1.603,0.108c-0.018,0.126-0.126,0.216-0.36,0.234v1.495h6.968v3.223
		h-1.224V6.072H-2.354z M2.364,7.584C2.292,7.692,2.166,7.746,1.968,7.746c-1.17,1.387-2.989,2.827-4.627,3.729
		c-0.18-0.234-0.558-0.686-0.792-0.883c1.566-0.811,3.349-2.161,4.43-3.547L2.364,7.584z M8.144,13.777
		c-1.639-1.135-3.169-2.412-4.159-3.618c-0.882,1.151-2.287,2.448-3.925,3.618H8.144z M0.167,18.135h7.652v-3.258H0.167V18.135z
		 M10.448,11.438c-0.99-1.063-3.061-2.628-4.771-3.69l0.81-0.72c1.71,1.008,3.817,2.521,4.862,3.583L10.448,11.438z"/>
	<path fill="#FFFFFF" d="M30.177,11.491h-5.258c1.423,1.313,3.619,2.396,5.762,2.917c-0.27,0.252-0.594,0.685-0.774,0.99
		c-0.432-0.127-0.846-0.252-1.278-0.414v4.86h-1.116v-0.647h-3.547v0.721h-1.081v-5.941h3.62c-1.207-0.685-2.287-1.549-3.097-2.484
		h-2.809c-0.864,0.953-1.926,1.781-3.169,2.484h3.673v5.869h-1.134v-0.647h-3.475v0.721h-1.081v-4.97
		c-0.396,0.162-0.792,0.324-1.206,0.468c-0.144-0.252-0.522-0.701-0.756-0.899c2.197-0.737,4.087-1.746,5.51-3.024h-5.114v-1.098
		h6.158c0.378-0.45,0.685-0.936,0.955-1.44h-5.8v-4.99h5.852v4.879l0.162-0.36l1.44,0.414c-0.036,0.108-0.18,0.18-0.414,0.198
		c-0.216,0.45-0.45,0.882-0.738,1.296h8.715V11.491z M19.842,7.944v-2.97h-3.565v2.971L19.842,7.944L19.842,7.944z M19.968,18.135
		v-3.096h-3.475v3.096H19.968z M28.952,3.965v4.987h-5.888V3.965H28.952z M23.965,18.135h3.547v-3.096h-3.547V18.135z M27.782,7.944
		v-2.97H24.18v2.971L27.782,7.944L27.782,7.944z"/>
	<path fill="#FFFFFF" d="M35.41,17.559c0,0.758,0.378,0.938,2.358,0.938h7.112c1.675,0,1.945-0.396,2.106-2.521
		c0.324,0.18,0.829,0.379,1.171,0.432c-0.253,2.611-0.756,3.242-3.277,3.242h-7.021c-2.81,0-3.638-0.379-3.638-2.071v-4.753h6.374
		V9.549H34.42V8.683c-0.612,0.828-1.261,1.566-1.927,2.197c-0.216-0.234-0.666-0.612-0.972-0.811
		c1.818-1.584,3.583-4.303,4.627-7.04l1.513,0.504c-0.036,0.126-0.198,0.198-0.396,0.18c-0.216,0.522-0.468,1.063-0.738,1.585h9.813
		l0.684,0.036c-0.144,0.99-0.036,8.535-0.954,9.633c-0.378,0.504-0.774,0.611-2.034,0.611c-0.469,0-1.026-0.018-1.603-0.055
		c-0.019-0.359-0.145-0.847-0.342-1.151c0.99,0.071,1.89,0.091,2.232,0.091c0.324,0,0.521-0.037,0.666-0.234
		c0.414-0.485,0.594-2.395,0.756-7.761h-9.866c-0.396,0.685-0.811,1.351-1.261,1.963h7.202v5.491h-6.41V17.559z"/>
	<path fill="#FFFFFF" d="M59.082,13.887c0.486,0.863,1.115,1.656,1.872,2.322c1.099-0.521,2.467-1.332,3.276-1.945l1.08,0.793
		c-0.07,0.09-0.215,0.127-0.377,0.09c-0.828,0.486-2.144,1.188-3.224,1.692c1.313,0.974,2.917,1.692,4.718,2.089
		c-0.253,0.252-0.559,0.702-0.703,1.008c-3.563-0.936-6.318-3.043-7.832-6.049h-0.035c-0.738,0.666-1.674,1.297-2.7,1.854
		l0.378,0.071c-0.02,0.127-0.126,0.218-0.36,0.252v2.162l4.663-0.576l0.036,0.937c-2.755,0.396-5.707,0.812-7.544,1.044
		c0,0.145-0.107,0.217-0.234,0.252l-0.468-1.242c0.685-0.072,1.494-0.162,2.377-0.271v-2.054c-1.226,0.576-2.521,1.027-3.709,1.334
		c-0.162-0.289-0.469-0.702-0.703-0.92c2.306-0.521,4.97-1.584,6.718-2.844h-6.465v-0.99h7.508v-1.604L58.92,11.4
		c-0.018,0.127-0.107,0.217-0.342,0.252v1.244h7.598v0.989L59.082,13.887L59.082,13.887z M49.646,9.655
		c0.955-0.324,2.287-0.846,3.674-1.386l0.216,0.936c-1.17,0.486-2.341,0.973-3.114,1.279c0,0.144-0.072,0.234-0.181,0.288
		L49.646,9.655z M50.943,4.253c0.811,0.522,1.801,1.296,2.25,1.891l-0.737,0.738c-0.45-0.576-1.423-1.404-2.231-1.962L50.943,4.253z
		 M55.354,3.227c-0.018,0.108-0.106,0.198-0.358,0.234v8.229h-1.136V3.12L55.354,3.227z M60.414,9.961V6.828h-4.52v-0.99h4.52V3.119
		l1.566,0.108c-0.019,0.126-0.127,0.216-0.359,0.252v2.359h4.609v0.99h-4.609v3.133h4.033v0.99h-9.184v-0.99H60.414z"/>
	<path fill="#FFFFFF" d="M68.387,5.82h11.451l0.107-0.054l1.225,0.937c-0.054,0.072-0.107,0.126-0.216,0.162
		c-1.459,6.771-4.593,10.299-10.103,12.388c-0.197-0.323-0.558-0.793-0.81-1.063c5.239-1.926,8.265-5.274,9.435-11.126h-11.09V5.82z
		 M82.105,2.597c1.08,0,1.963,0.882,1.963,1.98c0,1.081-0.883,1.963-1.963,1.963c-1.099,0-1.979-0.882-1.979-1.963
		C80.126,3.443,81.044,2.597,82.105,2.597z M83.475,4.577c0-0.774-0.611-1.386-1.367-1.386s-1.387,0.612-1.387,1.386
		c0,0.756,0.631,1.387,1.387,1.387C82.898,5.964,83.475,5.298,83.475,4.577z"/>
	<path fill="#FFFFFF" d="M98.938,9.493c-0.035,0.072-0.127,0.144-0.233,0.18c-1.478,5.438-4.483,8.085-9.867,9.579
		c-0.162-0.324-0.504-0.773-0.756-1.045c4.897-1.225,7.94-3.744,9.073-7.922h-11.92V9.06h12.461l0.181-0.108L98.938,9.493z
		 M97.244,5.64H86.98V4.451h10.264V5.64z"/>
</g>
<g>
	<path fill-rule="evenodd" clip-rule="evenodd" fill="#FFFFFF" d="M119.209,6.375c-0.795-0.032-9.001,0.042-9.001,0.042
		c-0.862-0.19-1.5,0.461-1.5,0.669L108.7,10h-2.4l0.042-3.958c0-1.033,0.783-2.042,2.158-2.042h11.6
		c1.525,0,2.105,1.001,2.373,1.625l0.027,2l1.4-0.025l-2.317,2.942L118.9,7.6h1.199C120.1,6.913,119.709,6.375,119.209,6.375"/>
	<path fill-rule="evenodd" clip-rule="evenodd" fill="#FFFFFF" d="M106.5,18.542l-0.032-4.574h-1.2l2.2-3.2l2.601,3h-1.2
		l0.032,3.523c0,0,0.101,0.418,0.392,0.709s1.291,0.165,1.291,0.165s6.377-0.027,8.433-0.027c0,0,0.404,0.209,0.792-0.18
		s0.478-0.881,0.478-0.881l-0.018-1.51h2.4c0.024,2.349,0.024,2.349,0.024,2.349s0.058,1.125-0.567,1.75s-1.857,0.701-1.857,0.701
		c-1.24,0-10.726,0.027-10.726,0.027c-0.661,0-1.37-0.04-1.819-0.312C106.812,19.534,106.5,18.542,106.5,18.542"/>
</g>
<g>
	<path fill="#FFFFFF" d="M110.039,11.092v-0.559h3.758l0.66,0.482c-0.085,2.049-1.244,3.386-3.479,4.012l-0.457-0.559
		c2.116-0.49,3.225-1.616,3.326-3.377H110.039z M114.076,10.559c-0.136-0.135-0.203-0.305-0.203-0.508s0.067-0.372,0.203-0.508
		c0.136-0.135,0.305-0.203,0.508-0.203s0.372,0.068,0.508,0.203c0.136,0.136,0.203,0.305,0.203,0.508s-0.067,0.373-0.203,0.508
		c-0.136,0.136-0.305,0.203-0.508,0.203S114.212,10.694,114.076,10.559z M114.914,10.381c0.085-0.084,0.127-0.194,0.127-0.33
		c0-0.135-0.042-0.245-0.127-0.33c-0.085-0.084-0.194-0.127-0.33-0.127s-0.245,0.042-0.33,0.127
		c-0.085,0.085-0.127,0.195-0.127,0.33c0,0.136,0.042,0.246,0.127,0.33c0.085,0.085,0.194,0.127,0.33,0.127
		S114.829,10.466,114.914,10.381z"/>
	<path fill="#FFFFFF" d="M116.844,14.9c1.642-0.423,2.564-1.312,2.768-2.666h-3.859v-0.559h3.885l0.229-0.076l0.457,0.279
		c0.102,0.085,0.085,0.161-0.051,0.229c-0.271,1.693-1.261,2.793-2.971,3.301L116.844,14.9z M119.713,10.787h-3.504v-0.559h3.504
		V10.787z"/>
</g>
</svg>
