<?xml version="1.0" encoding="utf-8"?>
<!-- Generator: Adobe Illustrator 13.0.3, SVG Export Plug-In . SVG Version: 6.00 Build 14948)  -->
<!DOCTYPE svg PUBLIC "-//W3C//DTD SVG 1.1//EN" "http://www.w3.org/Graphics/SVG/1.1/DTD/svg11.dtd">
<svg version="1.1" id="レイヤー_1" xmlns="http://www.w3.org/2000/svg" xmlns:xlink="http://www.w3.org/1999/xlink" x="0px"
	 y="0px" width="120px" height="23px" viewBox="0 0 120 23" enable-background="new 0 0 120 23" xml:space="preserve">
<g>
	<path fill="#FFFFFF" d="M11.979,15.517c-0.846,0.54-1.729,1.044-2.61,1.476c-0.162-0.287-0.468-0.738-0.703-0.99
		c3.115-1.439,6.23-3.906,7.67-6.031l1.783,0.108c-0.036,0.126-0.18,0.216-0.36,0.234c1.747,2.07,4.97,4.322,7.743,5.474
		c-0.271,0.287-0.576,0.737-0.774,1.08c-0.864-0.414-1.783-0.919-2.683-1.495v5.42h-1.225v-0.558h-7.652v0.647h-1.188V15.517z
		 M10.646,7.072v2.107h-1.17V5.956h6.86V4.119l1.603,0.108c-0.018,0.126-0.126,0.216-0.36,0.234v1.495h6.968v3.223h-1.224V7.072
		H10.646z M15.364,8.584c-0.072,0.108-0.198,0.162-0.396,0.162c-1.17,1.387-2.989,2.827-4.627,3.728
		c-0.18-0.234-0.558-0.685-0.792-0.882c1.566-0.811,3.349-2.161,4.43-3.547L15.364,8.584z M21.144,14.778
		c-1.639-1.135-3.169-2.413-4.159-3.619c-0.882,1.152-2.287,2.448-3.925,3.619H21.144z M13.167,19.135h7.652v-3.258h-7.652V19.135z
		 M23.448,12.438c-0.99-1.063-3.061-2.629-4.771-3.691l0.81-0.72c1.71,1.008,3.817,2.521,4.862,3.583L23.448,12.438z"/>
	<path fill="#FFFFFF" d="M43.177,12.491h-5.258c1.423,1.314,3.619,2.396,5.762,2.917c-0.27,0.252-0.594,0.685-0.774,0.99
		c-0.432-0.126-0.846-0.252-1.278-0.414v4.861h-1.116v-0.648h-3.547v0.721h-1.081v-5.941h3.62c-1.207-0.685-2.287-1.549-3.097-2.485
		h-2.809c-0.864,0.954-1.926,1.782-3.169,2.485h3.673v5.869h-1.134v-0.648h-3.475v0.721h-1.081v-4.97
		c-0.396,0.162-0.792,0.324-1.206,0.468c-0.144-0.252-0.522-0.701-0.756-0.899c2.197-0.738,4.087-1.747,5.51-3.025h-5.114v-1.098
		h6.158c0.378-0.45,0.685-0.936,0.955-1.44H28.16V4.965h5.852v4.879l0.162-0.36l1.44,0.414c-0.036,0.108-0.18,0.18-0.414,0.198
		c-0.216,0.45-0.45,0.882-0.738,1.296h8.715V12.491z M32.842,8.944V5.974h-3.565v2.971H32.842z M32.968,19.135v-3.096h-3.475v3.096
		H32.968z M41.952,4.965v4.987h-5.888V4.965H41.952z M36.965,19.135h3.547v-3.096h-3.547V19.135z M40.782,8.944V5.974h-3.602v2.971
		H40.782z"/>
	<path fill="#FFFFFF" d="M48.41,18.559c0,0.757,0.378,0.938,2.358,0.938h7.112c1.675,0,1.945-0.396,2.106-2.521
		c0.324,0.18,0.829,0.379,1.171,0.432c-0.252,2.611-0.756,3.242-3.277,3.242h-7.021c-2.81,0-3.638-0.379-3.638-2.071v-4.753h6.374
		v-3.277H47.42V9.683c-0.612,0.828-1.261,1.566-1.927,2.197c-0.216-0.234-0.666-0.612-0.972-0.811
		c1.818-1.584,3.583-4.303,4.627-7.04l1.513,0.504c-0.036,0.126-0.198,0.198-0.396,0.18c-0.216,0.522-0.468,1.063-0.738,1.585h9.813
		l0.684,0.036c-0.144,0.99-0.036,8.535-0.954,9.633c-0.378,0.504-0.774,0.611-2.034,0.611c-0.469,0-1.026-0.018-1.603-0.054
		c-0.019-0.36-0.145-0.847-0.342-1.152c0.99,0.072,1.89,0.091,2.232,0.091c0.324,0,0.521-0.037,0.666-0.234
		c0.414-0.486,0.594-2.395,0.756-7.761h-9.866c-0.396,0.685-0.811,1.351-1.261,1.963h7.202v5.491h-6.41V18.559z"/>
	<path fill="#FFFFFF" d="M72.082,14.887c0.486,0.863,1.116,1.656,1.872,2.322c1.099-0.522,2.467-1.332,3.277-1.945l1.08,0.793
		c-0.071,0.09-0.216,0.126-0.378,0.09c-0.828,0.486-2.143,1.188-3.223,1.692c1.314,0.973,2.917,1.692,4.718,2.089
		c-0.253,0.252-0.559,0.702-0.703,1.008c-3.564-0.936-6.319-3.043-7.832-6.049h-0.036c-0.738,0.666-1.674,1.296-2.7,1.854
		l0.378,0.072c-0.019,0.127-0.126,0.217-0.36,0.252v2.161l4.663-0.576l0.036,0.937c-2.755,0.396-5.707,0.811-7.544,1.044
		c0,0.144-0.108,0.216-0.234,0.252l-0.468-1.242c0.684-0.072,1.494-0.162,2.377-0.271v-2.053c-1.225,0.576-2.521,1.027-3.709,1.333
		c-0.162-0.288-0.469-0.702-0.703-0.919c2.305-0.521,4.97-1.584,6.717-2.844h-6.464v-0.99h7.508v-1.604l1.566,0.108
		c-0.018,0.126-0.108,0.216-0.342,0.252v1.243h7.598v0.99H72.082z M62.647,10.655c0.954-0.324,2.286-0.846,3.673-1.386l0.216,0.936
		c-1.17,0.486-2.341,0.973-3.114,1.279c0,0.144-0.072,0.234-0.181,0.288L62.647,10.655z M63.943,5.253
		c0.811,0.522,1.801,1.296,2.251,1.891l-0.738,0.738c-0.45-0.576-1.423-1.404-2.232-1.962L63.943,5.253z M68.354,4.227
		c-0.018,0.108-0.107,0.198-0.359,0.234v8.229H66.86v-8.57L68.354,4.227z M73.414,10.961V7.828h-4.519v-0.99h4.519V4.119
		l1.566,0.108c-0.018,0.126-0.126,0.216-0.359,0.252v2.359h4.609v0.99h-4.609v3.133h4.033v0.99h-9.183v-0.99H73.414z"/>
	<path fill="#FFFFFF" d="M81.387,6.82h11.451l0.107-0.054l1.225,0.937c-0.054,0.072-0.107,0.126-0.216,0.162
		c-1.459,6.771-4.592,10.299-10.102,12.388c-0.197-0.324-0.558-0.793-0.81-1.063c5.239-1.927,8.265-5.275,9.435-11.127H81.387V6.82z
		 M95.106,3.597c1.08,0,1.963,0.882,1.963,1.98c0,1.081-0.883,1.963-1.963,1.963c-1.099,0-1.98-0.882-1.98-1.963
		C93.126,4.443,94.044,3.597,95.106,3.597z M96.475,5.577c0-0.774-0.612-1.386-1.368-1.386S93.72,4.803,93.72,5.577
		c0,0.756,0.631,1.387,1.387,1.387C95.898,6.964,96.475,6.298,96.475,5.577z"/>
	<path fill="#FFFFFF" d="M111.937,10.493c-0.035,0.072-0.126,0.144-0.233,0.18c-1.477,5.438-4.483,8.085-9.867,9.579
		c-0.162-0.324-0.504-0.774-0.756-1.045c4.897-1.225,7.94-3.744,9.074-7.922h-11.92v-1.225h12.46l0.181-0.108L111.937,10.493z
		 M110.244,6.64H99.981V5.451h10.263V6.64z"/>
</g>
</svg>
