<?xml version="1.0" encoding="utf-8"?>
<!-- Generator: Adobe Illustrator 13.0.3, SVG Export Plug-In . SVG Version: 6.00 Build 14948)  -->
<!DOCTYPE svg PUBLIC "-//W3C//DTD SVG 1.1//EN" "http://www.w3.org/Graphics/SVG/1.1/DTD/svg11.dtd">
<svg version="1.1" id="レイヤー_1" xmlns="http://www.w3.org/2000/svg" xmlns:xlink="http://www.w3.org/1999/xlink" x="0px"
	 y="0px" width="120px" height="23px" viewBox="0 0 120 23" enable-background="new 0 0 120 23" xml:space="preserve">
<g>
	<path fill="#FFFFFF" d="M-1.762,14.746c-0.847,0.539-1.729,1.043-2.61,1.477c-0.162-0.287-0.468-0.738-0.703-0.99
		c3.115-1.438,6.23-3.903,7.67-6.029L4.378,9.31c-0.036,0.126-0.18,0.216-0.36,0.234c1.747,2.069,4.971,4.321,7.743,5.476
		c-0.271,0.287-0.576,0.735-0.773,1.08c-0.864-0.414-1.783-0.918-2.684-1.494v5.42H7.079v-0.562h-7.652v0.646h-1.188L-1.762,14.746
		L-1.762,14.746z M-3.095,6.3v2.107h-1.17V5.184h6.859V3.347l1.604,0.108C4.18,3.581,4.072,3.671,3.838,3.689v1.495h6.968v3.223
		H9.582V6.3H-3.095z M1.623,7.812C1.551,7.92,1.425,7.974,1.227,7.974c-1.17,1.387-2.988,2.827-4.627,3.729
		c-0.18-0.234-0.558-0.686-0.792-0.883c1.566-0.811,3.35-2.161,4.431-3.547L1.623,7.812z M7.403,14.005
		c-1.64-1.135-3.169-2.411-4.159-3.618c-0.882,1.151-2.287,2.448-3.925,3.618H7.403z M-0.574,18.363h7.652v-3.258h-7.652V18.363z
		 M9.707,11.666c-0.99-1.063-3.061-2.628-4.771-3.69l0.811-0.72c1.71,1.008,3.817,2.521,4.862,3.583L9.707,11.666z"/>
	<path fill="#FFFFFF" d="M29.436,11.719h-5.258c1.423,1.313,3.619,2.396,5.763,2.918c-0.271,0.252-0.595,0.684-0.774,0.989
		c-0.432-0.127-0.846-0.252-1.278-0.414v4.86h-1.115v-0.646h-3.548v0.721h-1.081v-5.939h3.62c-1.207-0.688-2.287-1.549-3.097-2.484
		h-2.809c-0.864,0.953-1.927,1.781-3.169,2.484h3.673v5.869h-1.134V19.43h-3.476v0.721h-1.081V15.18
		c-0.396,0.161-0.792,0.323-1.206,0.469c-0.144-0.252-0.521-0.7-0.756-0.898c2.197-0.736,4.087-1.746,5.51-3.024h-5.113v-1.098
		h6.157c0.378-0.45,0.686-0.936,0.955-1.44h-5.8v-4.99h5.853v4.879l0.161-0.36l1.44,0.414c-0.036,0.108-0.18,0.18-0.414,0.198
		c-0.216,0.45-0.45,0.882-0.738,1.296h8.715V11.719z M19.101,8.172v-2.97h-3.564v2.971L19.101,8.172L19.101,8.172z M19.227,18.363
		v-3.096h-3.475v3.096H19.227z M28.211,4.193V9.18h-5.888V4.193H28.211z M23.224,18.363h3.548v-3.096h-3.548V18.363z M27.041,8.172
		v-2.97h-3.602v2.971L27.041,8.172L27.041,8.172z"/>
	<path fill="#FFFFFF" d="M34.669,17.787c0,0.758,0.378,0.938,2.358,0.938h7.111c1.676,0,1.945-0.396,2.106-2.521
		c0.324,0.181,0.829,0.379,1.171,0.433c-0.253,2.61-0.756,3.241-3.277,3.241h-7.021c-2.811,0-3.638-0.379-3.638-2.071v-4.752h6.374
		V9.777h-6.176V8.911c-0.611,0.828-1.261,1.566-1.927,2.196c-0.216-0.233-0.666-0.611-0.972-0.811
		c1.817-1.584,3.583-4.303,4.627-7.04l1.513,0.504c-0.036,0.126-0.198,0.198-0.396,0.18c-0.217,0.522-0.469,1.063-0.738,1.585h9.813
		l0.685,0.036c-0.145,0.99-0.036,8.537-0.954,9.632c-0.378,0.505-0.774,0.611-2.034,0.611c-0.469,0-1.026-0.02-1.603-0.057
		c-0.02-0.357-0.146-0.848-0.343-1.15c0.99,0.07,1.891,0.092,2.232,0.092c0.324,0,0.521-0.037,0.666-0.233
		c0.414-0.483,0.594-2.396,0.756-7.761h-9.866c-0.396,0.685-0.811,1.351-1.261,1.963h7.202v5.49h-6.41v3.639H34.669z"/>
	<path fill="#FFFFFF" d="M58.341,14.115c0.486,0.863,1.115,1.656,1.872,2.322c1.1-0.521,2.467-1.332,3.275-1.945l1.08,0.793
		c-0.069,0.09-0.215,0.127-0.377,0.09c-0.828,0.486-2.146,1.188-3.226,1.691c1.313,0.975,2.917,1.691,4.72,2.09
		c-0.254,0.252-0.561,0.701-0.703,1.008c-3.563-0.936-6.317-3.043-7.833-6.049h-0.035c-0.738,0.666-1.674,1.297-2.7,1.854
		l0.378,0.071c-0.02,0.127-0.126,0.218-0.36,0.252v2.162l4.663-0.576l0.036,0.937c-2.755,0.396-5.707,0.813-7.544,1.045
		c0,0.146-0.106,0.219-0.233,0.252l-0.469-1.24c0.686-0.072,1.494-0.162,2.377-0.271v-2.055c-1.226,0.576-2.521,1.025-3.709,1.334
		c-0.162-0.289-0.469-0.702-0.703-0.92c2.307-0.521,4.971-1.584,6.719-2.845h-6.465v-0.989h7.508V11.52l1.565,0.108
		c-0.018,0.127-0.106,0.218-0.342,0.252v1.244h7.6v0.989L58.341,14.115L58.341,14.115z M48.905,9.883
		c0.955-0.324,2.287-0.846,3.674-1.386l0.216,0.936c-1.17,0.486-2.341,0.973-3.114,1.279c0,0.144-0.071,0.234-0.181,0.288
		L48.905,9.883z M50.202,4.481c0.811,0.522,1.801,1.296,2.25,1.891L51.715,7.11c-0.45-0.576-1.423-1.404-2.23-1.962L50.202,4.481z
		 M54.613,3.455c-0.019,0.108-0.106,0.198-0.358,0.234v8.229h-1.136v-8.57L54.613,3.455z M59.673,10.189V7.056h-4.52v-0.99h4.52
		V3.347l1.565,0.108c-0.021,0.126-0.127,0.216-0.358,0.252v2.359h4.608v0.99H60.88v3.133h4.033v0.991h-9.184v-0.991H59.673z"/>
	<path fill="#FFFFFF" d="M67.646,6.048h11.449l0.106-0.054l1.226,0.937c-0.055,0.072-0.105,0.126-0.217,0.162
		c-1.459,6.771-4.593,10.3-10.104,12.388c-0.196-0.321-0.56-0.793-0.812-1.063c5.239-1.926,8.267-5.271,9.437-11.126h-11.09
		L67.646,6.048L67.646,6.048z M81.363,2.825c1.08,0,1.964,0.882,1.964,1.98c0,1.081-0.884,1.963-1.964,1.963
		c-1.1,0-1.979-0.882-1.979-1.963C79.385,3.671,80.303,2.825,81.363,2.825z M82.734,4.805c0-0.774-0.611-1.386-1.367-1.386
		S79.98,4.031,79.98,4.805c0,0.756,0.631,1.387,1.387,1.387C82.157,6.192,82.734,5.526,82.734,4.805z"/>
	<path fill="#FFFFFF" d="M98.197,9.721c-0.035,0.072-0.127,0.144-0.233,0.18c-1.478,5.438-4.481,8.085-9.866,9.58
		c-0.162-0.322-0.505-0.771-0.757-1.045c4.897-1.226,7.94-3.744,9.073-7.92h-11.92V9.288h12.461l0.182-0.108L98.197,9.721z
		 M96.503,5.868H86.238V4.679h10.265V5.868z"/>
</g>
<g>
	<path fill="#FFFFFF" d="M118.468,6.603c-0.795-0.032-9.001,0.042-9.001,0.042c-0.861-0.19-1.5,0.461-1.5,0.669l-0.008,2.914h-2.4
		l0.043-3.958c0-1.033,0.782-2.042,2.157-2.042h11.601c1.524,0,2.104,1.001,2.373,1.625l0.026,2l1.4-0.025l-2.317,2.942
		l-2.683-2.942h1.198C119.359,7.141,118.968,6.603,118.468,6.603"/>
	<path fill="#FFFFFF" d="M105.759,18.77l-0.032-4.574h-1.199l2.199-3.197l2.604,3h-1.2l0.032,3.521c0,0,0.102,0.418,0.393,0.709
		s1.291,0.164,1.291,0.164s6.377-0.024,8.434-0.024c0,0,0.404,0.209,0.793-0.183c0.388-0.389,0.478-0.881,0.478-0.881l-0.019-1.51
		h2.4c0.022,2.35,0.022,2.35,0.022,2.35s0.06,1.125-0.565,1.75s-1.857,0.701-1.857,0.701c-1.239,0-10.727,0.026-10.727,0.026
		c-0.66,0-1.369-0.04-1.818-0.312C106.07,19.762,105.759,18.77,105.759,18.77"/>
</g>
<g>
	<path fill="#FFFFFF" d="M109.298,11.32v-0.559h3.759l0.659,0.482c-0.085,2.049-1.243,3.386-3.479,4.012l-0.457-0.56
		c2.117-0.489,3.227-1.615,3.326-3.377h-3.809L109.298,11.32L109.298,11.32z M113.335,10.787c-0.136-0.135-0.203-0.305-0.203-0.508
		c0-0.203,0.067-0.372,0.203-0.508c0.136-0.135,0.306-0.203,0.508-0.203c0.203,0,0.372,0.068,0.509,0.203
		c0.137,0.136,0.203,0.305,0.203,0.508c0,0.203-0.066,0.373-0.203,0.508c-0.137,0.136-0.306,0.203-0.509,0.203
		C113.641,10.99,113.471,10.922,113.335,10.787z M114.173,10.609c0.085-0.084,0.127-0.194,0.127-0.33
		c0-0.135-0.042-0.245-0.127-0.33c-0.085-0.084-0.192-0.127-0.33-0.127c-0.136,0-0.245,0.042-0.329,0.127
		c-0.086,0.085-0.127,0.195-0.127,0.33c0,0.136,0.041,0.246,0.127,0.33c0.084,0.085,0.193,0.127,0.329,0.127
		S114.088,10.694,114.173,10.609z"/>
	<path fill="#FFFFFF" d="M116.104,15.128c1.644-0.423,2.563-1.312,2.77-2.666h-3.857v-0.56h3.885l0.229-0.075l0.457,0.278
		c0.104,0.086,0.085,0.162-0.051,0.229c-0.271,1.691-1.262,2.793-2.973,3.302L116.104,15.128z M118.973,11.016h-3.505v-0.56h3.505
		V11.016z"/>
</g>
</svg>
